<svg xmlns="http://www.w3.org/2000/svg" xml:space="preserve" width="800" height="800" viewBox="0 0 44.86 44.86">
  <path fill="currentColor" d="M19.02 20.96c.26-.4.1-1.67.1-1.67C9.66 16.03 2.6 11.96 3 10.3c.2-.82.47-1.18.66-1.24.42-.14 1.37.36 2.54 1.13l1.95-2.28c-.92-.57-3.19-2.43-5.42-1.7C1.84 6.5.64 7.32.1 9.6c-1.28 5.32 11.41 10.12 18.22 12.48l.71-1.12z"/>
  <path fill="currentColor" d="M41.11 10.65A20.4 20.4 0 0 0 24.43 2h-.12a20.4 20.4 0 0 0-17.23 9.68c.43.27.9.55 1.45.85.18-.3.37-.59.57-.88 1.27.85 2.74 1.6 4.37 2.2-.1.33-.16.67-.24 1l1.55.66c.09-.38.16-.76.26-1.12 2.58.8 5.48 1.27 8.55 1.34v2.13l.1.07.15.87.23 1.35 1.2.3v-4.72c.6-.01 1.18-.06 1.76-.1l.44-1.24.16-.48c-.77.07-1.56.13-2.36.14V3.75c3.4.52 6.34 4.05 8 9.1-.8.23-1.66.42-2.53.6.57.28 1.14.73 1.54 1.35.49-.12.98-.24 1.46-.38.62 2.38.99 5.03 1 7.84h-2.6l-.08.5 2.5 1.03c.77.32 1.35.8 1.74 1.4.03-.42.07-.83.08-1.26h4.03c-.07.52-.14 1.05-.23 1.55.25-.13.48-.39.6-.87.06-.26.06-.48.05-.68h2.3a18.62 18.62 0 0 1-3.37 9.28 21.28 21.28 0 0 0-4.45-2.24c.1-.33.17-.68.25-1.02a3.1 3.1 0 0 1-1.96.65c-.33 0-.6-.04-.8-.07h-.05c-.2-.02-.48-.04-2.18-.63.2-.27.44-.62.7-1.03v-.84c.79.27 1.46.5 1.62.5.44.03 1.56.42 1.88-.92.33-1.33-.51-1.78-.98-1.97l-2.52-1.03v-1.7l-.58 1.46-.88-.36s1.27-6.99.92-7.87-1.38-1.08-1.38-1.08l-2.76 7.8-3-.77-1.28-.33-.44-2.62-1.4-.9s.09 2.16-.12 3.33c-.04.22-.09.4-.15.53l-.1.16a6.5 6.5 0 0 1-.63.83 14.43 14.43 0 0 1-.76.82c-.39.39-.7.67-.7.67l1.23.9 2.04-1.54.46-.36.73.36 1.85.89.95.45.2.1-3.07 7.67s1.01.9 1.77.32c.76-.59 4-6.45 4-6.45l1.3.48-.17.43.3-.02v1.76l-.23-.08-.33-.04-.9 1.57c1.81.2 3.55.53 5.13 1-1.66 5.05-4.6 8.57-8 9.1v-6.09a2.9 2.9 0 0 1-1.68.54v5.56c-3.44-.47-6.4-4-8.1-9.08 1.72-.52 3.6-.88 5.6-1.08l.69-1.73c-2.4.18-4.68.6-6.75 1.23a31.29 31.29 0 0 1-.97-6.53h1.73l.44-.42a98.17 98.17 0 0 1-3.88-1.41v.15H5.67c.01-1.04.11-2.06.29-3.05a42.4 42.4 0 0 1-1.54-.87 20.31 20.31 0 0 0 4.3 17.16 20.4 20.4 0 0 0 15.59 7.36h.12a20.4 20.4 0 0 0 16.68-8.64 20.32 20.32 0 0 0 0-23.57zm-27.17 1.64a19.45 19.45 0 0 1-3.85-1.92c2.19-2.6 5.07-4.6 8.37-5.72-1.88 1.81-3.44 4.46-4.52 7.64zm9.65 1.77a30.93 30.93 0 0 1-8.09-1.24c1.69-5.08 4.65-8.62 8.1-9.09v10.33zM5.74 23.94h6.64c.1 2.5.49 4.89 1.09 7.07-1.63.6-3.1 1.35-4.37 2.2a18.63 18.63 0 0 1-3.36-9.27zm4.35 10.55a19.56 19.56 0 0 1 3.85-1.92c1.08 3.18 2.64 5.83 4.52 7.64a18.81 18.81 0 0 1-8.37-5.72zm20.16 5.77c1.91-1.82 3.5-4.5 4.58-7.72 1.48.54 2.8 1.2 3.94 1.95a18.81 18.81 0 0 1-8.52 5.77zm0-35.66a18.8 18.8 0 0 1 8.52 5.77c-.98.65-2.1 1.22-3.33 1.71l-.1-.02-.02.07-.49.2c-1.08-3.23-2.67-5.9-4.58-7.73zm6.17 17.66a32.56 32.56 0 0 0-1.11-8.37 21.58 21.58 0 0 0 4.45-2.23c2.12 3 3.39 6.65 3.43 10.6h-6.77z"/>
</svg>