<svg xmlns="http://www.w3.org/2000/svg" xml:space="preserve" width="800" height="800" viewBox="0 0 43.5 43.5">
  <path fill="currentColor" d="m41.6 9.8-3.2-2s2-5.9 1.9-6.7c-.2-.8-1-1.1-1-1.1l-3.5 6.4-3.6-1.6V2.5l-1-1s-.4 2.7-.9 3.4c-.4.6-2.2 1.8-2.2 1.8l1 1 2.4-1.4 3 2.1-3.8 6.2s.8 1 1.5.6c.8-.4 4.4-5 4.4-5l3.8 2c.4 0 1.3.5 1.8-.6.5-1-.2-1.6-.6-1.8z"/>
  <path fill="currentColor" d="M36 16.2c-.4-.7-1-1.2-1.7-1.8l-.9 1 1.6 1.5a12 12 0 0 1-3 1.5c-.8-2.4-2-4.5-3.5-5.9l1.6.7.7-1.1c-2-1-4.3-1.6-6.8-1.6A15.7 15.7 0 0 0 24 42a15.7 15.7 0 0 0 12-25.7zm-16.5-3.6a14.7 14.7 0 0 0-3.5 5.8 14 14 0 0 1-3-1.5c1.7-2 4-3.5 6.5-4.3zm-7.2 5.3c1 .7 2 1.3 3.3 1.7a25 25 0 0 0-.8 6.5H9.6c0-3 1-5.9 2.7-8.2zm-2.6 9.5h5c.2 1.9.5 3.7 1 5.4-1.3.4-2.5 1-3.4 1.7-1.5-2-2.4-4.5-2.6-7.1zm3.3 8c.9-.5 1.9-1 3-1.4.8 2.4 2 4.4 3.5 5.8a14 14 0 0 1-6.5-4.4zm10.4 5.1c-2.6-.3-5-3-6.2-7 1.8-.5 4-.8 6.2-.9v8zm0-9.2c-2.4.1-4.6.5-6.6 1a24 24 0 0 1-.7-5h7.3v4zm0-5.2H16c0-2.2.2-4.2.7-6 2 .5 4.2.9 6.6 1v5zm0-6.3c-2.2 0-4.4-.4-6.2-1 1.3-3.9 3.6-6.6 6.2-7v8zm1.3-8c2.6.5 4.8 3.2 6.1 7-1.8.6-4 1-6.1 1v-8zm0 9.3c2.3-.1 4.5-.5 6.5-1 .5 1.8.7 3.8.7 6h-7.2v-5zm0 6.3h7.2a24 24 0 0 1-.7 5c-2-.6-4.2-1-6.5-1v-4zm0 13.1v-7.9c2.2 0 4.3.4 6.1 1-1.3 3.8-3.5 6.5-6.1 7zm3.8-.6a14 14 0 0 0 3.5-6l3 1.5c-1.7 2-4 3.6-6.5 4.5zm7.3-5.4c-1-.7-2.2-1.3-3.4-1.7.4-1.7.7-3.5.8-5.4h5.2c-.2 2.6-1.2 5-2.6 7zM33.2 26a25 25 0 0 0-.8-6.5 12 12 0 0 0 3.4-1.7c1.6 2.3 2.6 5.1 2.6 8.2h-5.2z"/>
  <path fill="currentColor" d="M3.7 25.8A20.8 20.8 0 0 1 28 5.3l1.3-.8.4-1.4A23.4 23.4 0 0 0 1.3 29.7c.7 5 7.1 13.8 12.2 13.8-5.5-4-9.8-10.2-9.8-17.7z"/>
</svg>