<svg xmlns="http://www.w3.org/2000/svg" xml:space="preserve" width="800" height="800" viewBox="0 0 200.7 200.7">
  <path fill="currentColor" d="m191 111.6-.3-.3a22 22 0 0 0-9-5.9l-.6-.2a100.6 100.6 0 0 0-12.5-5c-5.2-2.5-5.7-4-5.8-4.2l-.3-.5.2-.5a36.8 36.8 0 0 0 7.5-15.5l.2-.3c1-1.4 1.7-3 2-4.7 1.2-4.4 1.2-7.6.2-9.8l-.1-.2v-.3c1.4-5.6 2.7-16.2-3.8-23.7-1-1.3-5-5.7-12.8-8l-3.8-1.2a52 52 0 0 0-10.7-2.4c-.4 0-.8 0-1.3.2h-1.4c-2 0-4.3 1-4.3 1-2.1.8-13.2 6-16.7 16.8-.6 1.5-1.8 6.2-.3 16.5v.4c-1.7 2.2-1.8 5.6-.5 10.2.4 2.1 1 3.7 2 5l.2.3a36 36 0 0 0 6.9 15.3l.3.4-.3.4a2 2 0 0 0-.3.6c-.5 1.6-4.7 4-11.2 6.6l-2.8-1-3.2-1.2c-6.9-3.4-7.8-5.4-7.9-5.8l-.4-.8.4-.8a49.6 49.6 0 0 0 10-20.8l.3-.5a13 13 0 0 0 2.6-6.2c1.7-5.9 1.7-10.2.3-13.2l-.2-.3.1-.3c1.8-7.7 3.6-21.9-5.2-31.8a34.2 34.2 0 0 0-17-10.7l-5.1-1.7a70.4 70.4 0 0 0-14.5-3.2c-.5 0-1 0-1.7.2l-.7.1a15 15 0 0 0-6.9 1.2C59.7 7 45 13.8 40.1 28.4c-.7 2-2.3 8.3-.3 22.1l.1.4-.3.4c-2 2.8-2.2 7.4-.5 13.6a14 14 0 0 0 2.7 6.6l.2.5a48.3 48.3 0 0 0 9.3 20.6l.5.5-.5.7-.3.8c-1.2 3.3-14.4 9.2-26 12.8-8.3 3.1-12 8.3-12 8.3-11.5 17-13 53.6-13 55.2.2 9.5 4.5 11.4 5.3 11.7l.8.3c25.3 11 62.4 13.2 66.6 13.5H74l3.6-.1h.5l.8.1h.2c1.7 0 41.5-2.4 66.3-13.5 1.4-.4 5.8-2.2 6.2-11.5 8.8-.8 30-3.2 44.4-9.7 1-.2 4.6-1.7 4.7-9.2-.2-3-1.6-28.7-9.7-40.9zM55 98.4l.7-.7.7.7c6 5.7 12.8 8.8 19 8.8 6.4 0 13-2.7 19.1-8l.6-.5 1.3.7a30 30 0 0 0 4.1 3l1.3.6-.2.1.5.3a60 60 0 0 0 7.8 3.6c.2.1 6.3 2 13.2 5.3l1.3.3c6.5 2.5 9.3 6 9.4 6.2 10.2 15.1 11.9 48.1 12 51.8 0 5.2-1.5 6.5-1.9 6.8-22.8 10.2-57.3 12.9-64 13.3h-.4l-.7-.1h-.3l-4.7.2h-1.1c-4.2-.3-41.4-2.7-65.2-13.3-.5-.2-1.9-1.9-2-6.6 0-.4 1.2-36 12-51.9.5-.7 3.4-4 9.2-6.3A99.3 99.3 0 0 0 51.4 102l1-.8c.4-.6 1.5-1.7 2.7-2.8zm71.2 8.9-1-.3-4.8-2a35.6 35.6 0 0 0 6.4-4l2-2 .5-.4.4.4a22 22 0 0 0 14.2 6.6c4.8 0 9.8-2.1 14.3-6l.4-.3.9.4c.8.8 2.3 2 3 2.3l.8.3v.1l.4.3a40.8 40.8 0 0 0 5.8 2.7c.2 0 4.7 1.5 9.8 3.9l1 .3c4.7 1.8 6.7 4.2 6.9 4.5 7.6 11.3 8.8 35.7 9 38.4-.1 3.8-1.2 4.8-1.4 5a152.7 152.7 0 0 1-43.5 9.5c-.8-11.2-3.6-37.6-12.8-51.4l-.4-.4a30 30 0 0 0-12-7.9zm-5.4-40.8.2-.2c.7-.5 1-1.4 1-2.2-1.8-10.3-.7-14.7-.3-15.7 3-9.2 12.4-13.5 14.3-14.3l1.8-.5h.3l1.4-.1v.1h.4l.9-.2h.4c.3 0 4 .4 9.5 2l3.8 1.4a21 21 0 0 1 10.7 6.6c5.5 6.3 4 15.8 2.6 20.9-.1.6 0 1.2.3 1.8l.3.4c.4.5.8 2.6-.4 7a5.8 5.8 0 0 1-1.5 3.2c-.3.3-.5.7-.5 1.2-1.9 11-11.7 23.3-22.1 23.3-8.8 0-18.9-11.3-20.7-23.3 0-.5-.3-.9-.6-1.2a6.5 6.5 0 0 1-1.5-3.6c-.9-3-1-5.6-.3-6.6zM44.2 54.6l.3-.3c1-.6 1.4-1.7 1.2-2.8-2.3-14-.8-19.8-.3-21.2C49.4 17.9 62.2 12 64.7 11a14 14 0 0 1 2.5-.6l.3-.1 2.1-.1v.1h.5l1.3-.2.5-.1c.4 0 5.3.6 12.7 2.8l5.1 1.8c9.4 2.8 13.7 8 14.5 9 7.5 8.5 5.5 21.3 3.6 28.2-.2.8 0 1.6.4 2.3l.4.5c.7 1 1 4-.6 9.7-.3 1.8-1 3.3-2 4.3-.3.4-.6 1-.7 1.5-2.5 15-15.8 31.5-29.9 31.5-12 0-25.5-15.3-28-31.5 0-.5-.3-1-.7-1.5-1-1-1.7-2.6-2-4.9-1.3-4.2-1.4-7.6-.5-9z"/>
</svg>