<svg xmlns="http://www.w3.org/2000/svg" xml:space="preserve" width="800" height="800" viewBox="0 0 512 512">
  <path d="M227 142h-22a8 8 0 1 0 0 16h14a8 8 0 0 0 16-3v-5c0-5-3-8-8-8zm80 0h-22c-5 0-8 3-8 8v5a8 8 0 0 0 16 3h14a8 8 0 1 0 0-16zm-30 49c-5-1-9 1-11 5a11 11 0 0 1-20 0 8 8 0 0 0-16 6 27 27 0 0 0 52 0c1-5-1-9-5-11z"/>
  <path d="M396 371c6-16 10-34 10-52V150a150 150 0 0 0-300 0v169c0 18 4 36 10 52-35 36-53 83-53 133a8 8 0 1 0 16 0c0-44 15-85 44-117a150 150 0 0 0 266 0c29 32 44 73 44 117a8 8 0 1 0 16 0c0-50-18-97-53-133zm-7-52a133 133 0 0 1-23 75c-88-2-164-58-196-137a117 117 0 0 0 203-80v-27a117 117 0 0 0-99-116 8 8 0 1 0-3 16c35 5 63 28 77 59H164c14-31 42-54 77-59a8 8 0 1 0-3-16 117 117 0 0 0-99 116v27a232 232 0 0 0 215 232 133 133 0 0 1-221-39c-7-16-10-33-10-51V150a134 134 0 0 1 266 0v169zM155 177v-27c0-9 1-17 3-25h196c2 8 3 16 3 25v27a101 101 0 0 1-202 0z"/>
  <circle cx="302.3" cy="340.4" r="8.2"/>
  <circle cx="335" cy="307.7" r="8.2"/>
</svg>