<svg xmlns="http://www.w3.org/2000/svg" width="2064" height="1742" version="1.0">
  <path fill="#fefefe" d="M0 871V0h2064v1742H0V871zm845 756c9-5 16-11 23-21 9-14 12-27 7-39-10-27-32-39-58-34l-16 7-4 5c-4 4-11 16-13 22-4 12-3 25 4 38 7 11 23 23 37 25 8 2 9 2 20-3zm-200-41 10-2 10-4c6-3 9-5 15-11a63 63 0 0 0 13-74c-13-27-45-42-71-33l-11 5-12 7c-9 6-11 8-11 10l-5 13c-7 13-8 21-6 33 3 24 17 42 40 53l9 5c0 2 6 1 19-2zm462-74 34-15 34-15 16-8 3-2-9-10-24-25-17-18-2-3-3 2-10 6c-4 2-9 5-10 7-3 3-9 6-13 6s-12 3-14 5l-4 1-7 2c-5 2-6 3-6 5s-3 3-12 8l-12 8a2493 2493 0 0 0 41 53l15-7zm138-103c12-18 16-29 17-45v-16c-3-8-6-16-11-22l-4-6-3 2-10 10c-5 7-6 8-7 15-2 19 1 35 10 53a107 107 0 0 1 6 14l3-5zm98-39 9-2c4 0 13-5 20-12 11-10 17-26 16-38-2-22-21-42-43-46-5-1-7-1-13 1-10 3-22 10-30 18-6 6-7 8-7 10l-2 9-1 12c0 14 11 33 23 41 3 1 5 3 5 5 0 1 2 2 5 2 8 1 11 1 18-1zm-847-42c38-2 81-9 94-16 6-3 17-6 26-6 13-2 30 3 33 9 1 1 1 1 6-2l11-10c5-5 7-6 10-6a1143 1143 0 0 0 187-57 1959 1959 0 0 0 263-119c3 0 4 0 4-2s2-3 19-13c57-32 121-75 174-118l18-14 13-11a2048 2048 0 0 0 140-124l2-2c1-3 28-30 113-112 42-40 58-57 72-73 37-44 61-88 72-133 11-44 8-92-8-150l-6-20-2-10-10-33-18-59-1-3h-9c-31 3-58 10-82 24-14 8-23 16-61 53-39 39-56 54-78 71-68 52-140 77-229 81l-28 1 13 7c71 33 118 49 159 52 29 2 58-3 81-15l11-3h3v9c-3 34-4 58-4 74l-1 19h-22a378 378 0 0 1-168-41c-20-9-27-14-86-49-47-28-68-38-96-41-17-2-40 1-68 9a344 344 0 0 1-20 7l-1 2-1 5c0 8-16 18-36 24-9 2-10 2-37 2-25 0-27 0-36-2-8-2-9-2-9-1-1 1-3 3-7 4l-7 3-3 1-5 1-7 2c-5 0-7 1-8 2a1457 1457 0 0 1-126 44l-35 11a16095 16095 0 0 1-192 63c-2 2-7 1-16-3l-21-9 1 5c2 8 1 15-3 19-6 6-13 8-70 28a1616 1616 0 0 0-104 41c-37 20-69 44-91 70a225 225 0 0 0-30 41c-3 2-4 4-4 6l-6 16a258 258 0 0 0-20 109l1 28c1 0 1 6-1 9v2c2 0 3 2 3 7a428 428 0 0 0 31 118l2 7 2 4 2 3a269 269 0 0 0 163 147 93 93 0 0 1 22 6l10 2 12 2 4 1 10 2 16 2a615 615 0 0 0 70 2zm551-875c13-3 35-8 49-9 21-2 48 0 64 5 8 2 10 2 27 1 56-7 104-17 138-30a336 336 0 0 0 73-35 299 299 0 0 0 79-93c21-35 41-58 65-76 31-23 61-37 119-55l9-2-4-6-6-11c-11-17-36-44-50-54-16-11-37-19-53-20-17-1-38 6-54 16-22 15-43 40-64 77l-39 78c-29 66-48 103-61 120-25 33-58 48-126 58-21 3-80 6-114 6h-13l-5 4c-7 6-16 11-23 12h-45c-2-1-4 0-9 7l-7 7 4-2c8-3 12-3 16 1l4 7 1 3 8-3 17-6zm8-29h-8l4 1 4-1zm-112-75 2-2 1-1-8-2-11-1c-3 0-3 0-3 2s0 2 8 2l8-1v3c0 2 1 3 2 3l1-3zm-62-4-8-1-8 1c0 1 3 2 10 2 5 0 6 0 6-2z"/>
  <g fill="#17ebff">
    <path d="m812 1636-3-2c-2-2-2-2 0-2l6 2 4 2h-7zm11-1c0-1-1-2-3-2-4 0-19-8-25-14-7-6-12-15-15-26-5-17 0-35 14-50l5-5-4 2-8 7-4 4 3-5c3-5 10-10 12-10l5-2c10-5 31-7 43-3s23 13 29 26c5 9 5 13 5 23 0 12-2 18-9 29a60 60 0 0 1-44 27c-3 1-4 1-4-1zm-199-43-10-2c-3-2-3-2-1-2 11 2 11 2 1-3a65 65 0 0 1-40-49c-2-15-1-28 5-41s6-13 1-8l-4 5 3-5c2-5 7-10 19-17l10-6 11-6a67 67 0 0 1 77 34c6 12 7 17 7 31 0 9 0 13-2 19-4 12-9 21-17 30-10 9-18 13-30 16a1032 1032 0 0 0-30 4zm455-75-38-51a1575 1575 0 0 1 48 61l-10-10zm9 4-16-20-20-27-8-10 3-2a728 728 0 0 1 15-10c-11 4-13 5-7 2a951 951 0 0 1 30-14l4-1c2-2 10-5 14-5s10-3 13-6l6-5 12-7 9-5 3 4 24 26c29 30 33 35 29 35v3l-3-1-2-1-16 7a7519 7519 0 0 0-63 29l-17 8-7 3-3-3zm150-100c-1-1 0-1 3-1v-2l-2-4-6-11c-7-15-9-25-9-40v-16l-2 6-2 5v-5l2-9c4-10 22-30 26-29 2 1 11 14 14 22 4 10 4 15 3 29s-4 23-10 35c-9 17-15 24-17 20zm97-46-8-1c-15-2-27-10-34-24-4-6-3-7 0-1 4 6 12 14 18 17 3 1 4 2 2 0-17-12-27-33-24-51l2-9c0-2 0-2-1 0l-4 9-1 6 1-6c0-10 3-15 8-22 8-10 23-20 34-23 24-7 50 8 60 33 3 7 4 22 2 29-2 10-8 20-15 27s-16 12-20 12l-18 4h-2zm-907-43-2-2-6-1-12-2c-5-1-6-1-7 1h-2l-2-1-1-1c1-2 0-2-3-2l-11-2c-7-2-8-2-9 0h-1l-2-1c-1 0-2 0-1-1l-6-3-9-3c-3-1-3-1-5 1h-1l-2-1c-1 0-2 0-1-1a400 400 0 0 1-55-28 251 251 0 0 1-103-118l-5-5-5-5-1-3 3 1 3 2-2-4a459 459 0 0 1-32-123c0-2 0-2-2 0-1 1-1 1-1-3l1-4 1-6-1-31c0-27 0-32 2-45 4-26 9-46 19-67l5-14h-1c-3 0-2-3 0-4 3 0 9-7 9-9s15-23 26-36c22-26 54-50 91-70a556 556 0 0 1 49-24c-2-2-2-2 2-2l5 1c1 1 2 0 6-1l41-15c59-20 64-22 70-27 5-5 5-8 3-17l-1-8c1-1 8 2 23 8 10 5 13 5 16 4l12-4a16191 16191 0 0 0 215-70l8-2-3-2c-3-1-3-1 6-1h11l2-2 2-2 10-4a2515 2515 0 0 0 88-32c-2-1-2-1-1-2h7c6 1 11 0 10-2 0-2 6-3 7-1h1l7-3c6-2 9-5 6-5l-2-1c0-2 5-1 17 2 23 6 46 6 70 0 10-2 20-7 26-12l5-3c1 0 3-5 2-7l1-4 2-6c1-4 4-5 4-2 0 2 0 2 2 1l38-10c16-3 36-5 49-3 28 3 49 12 97 41 69 42 84 50 114 62 47 18 92 28 137 28h20l-1-6a1101 1101 0 0 1 5-90l-8 3c-22 12-51 17-81 15a609 609 0 0 1-190-65h11a454 454 0 0 0 199-44c47-25 75-47 137-109 44-43 51-49 74-60 21-10 45-15 72-17h12l1 3a810 810 0 0 1 28 94l5 17a697 697 0 0 1 16 59l1 3c1 1 1 2-1 1-2 0-2 0-2 2a257 257 0 0 1-2 97c-1 4-1 4 1 4 3 0 2 2 0 3-2 0-3 1-4 4l-13 39c-18 38-44 76-79 113l-50 48-72 70-38 37c-3 3-3 3-1 5 1 1 1 1-1 1l-3 1-1 1-30 26a2030 2030 0 0 1-118 107c2 1 2 1 0 2-1 2-2 2-3 0a1443 1443 0 0 1-210 141l-2 2 3 1c2 1 2 1-3 1l-8 1a2203 2203 0 0 1-306 136c-48 17-138 42-142 41-1-1-4 1-8 5-8 7-18 14-20 14l-3-2c-3-6-20-11-32-9-8 1-16 4-21 6a461 461 0 0 1-138 16c-19-1-23-1-24 1l-1 1-2-1zm288-233c2-1 2-1-1-1l-7 1-2 1c0 1 5 1 10-1z"/>
    <path d="M1019 464c-1-4-3-7-5-9l-4-3-9 3c-10 5-12 5-12 1 0-3 18-21 22-21 6 0 16 2 16 4h1c0-2 1-2 12-2 18 0 28-4 40-15l8-5c2 0 2 0 1 1a1519 1519 0 0 0 92-2c46-3 83-11 110-24 18-8 32-20 45-36 13-17 32-54 61-120l39-78c38-67 75-95 121-93 19 1 38 8 56 20a230 230 0 0 1 62 75 319 319 0 0 0-152 78c-15 15-29 33-43 57a299 299 0 0 1-88 99l-5 3a578 578 0 0 1-230 55c-15-5-40-7-59-5-28 3-75 16-75 20s-3 2-4-3z"/>
    <path d="m1036 427-3-3 1-2h5l18-1c12-1 13 0 13 1 0 4-6 5-19 6l-15-1z"/>
  </g>
  <g fill="#090809">
    <path d="M823 1648v-22l-14-14-15-16c0-1 2 0 5 4l5 4c1-1-1-7-3-12v-5l5 15c1 5 4 9 12 16l5 4v-13l-1-17-9-16-7-13c0-2 2-1 5 4 3 7 4 5 4-5l1-7 1 10-1 11 3 5 4 7 5-6a1544 1544 0 0 0 1 3l-5 5v11l1 11 7-6c6-6 12-17 14-23 0-3 2-4 2-1l-4 9-3 7h13l-7 1-7 1-8 8-7 8v8l1 10c1 1 8 0 18-4 6-3 9-5 14-10s9-10 10-13c14-29 0-62-31-73-8-2-16-3-25-1-20 5-34 19-40 40a51 51 0 0 0 29 56l8 5c0 2-2 1-10-3-14-6-25-20-29-35-4-18 2-38 14-50 5-5 12-10 14-10l6-2c3-2 9-3 13-4h15c20 5 34 17 40 35 5 13 4 33-2 45-6 11-22 23-37 25l-7 2v16l-1 17c-2 0-2-2-2-22z"/>
    <path d="M814 1636c0-2 3-3 5-1v1l-3 1-2-1zm-184-16-1-21v-7h-6a63 63 0 0 1-60-65c0-11 1-16 5-26 8-17 25-31 43-35a64 64 0 0 1 80 59c1 18-5 33-17 46a56 56 0 0 1-35 20c-8 1-7-1-7 22l-1 21-1-14zm-1-37v-6l-4-3a430 430 0 0 0-20-14l12 7 11 7 1-15c0-20 0-19-11-24l-13-4-10 3c-10 3-10 4-7 1l9-4 7-3-3-10c-4-9-4-13-2-10l4 10 4 10 11 5 10 4v-19l1-18 1 9v9l16-14 16-15c2 0-2 5-17 18l-15 14 1 24v24l7-6 7-6 1-12 3-14-2 18v6l9-9 9-7c0 2-16 17-27 27l-7 6v9l1 9c4 0 16-4 21-6 21-10 36-34 36-56 0-18-11-39-25-50a62 62 0 0 0-55-9c-10 3-17 6-26 15-8 9-14 18-17 30-2 9-1 25 2 35 8 23 32 40 57 41h4v-7zm459 0 2-34v-18l-21-26-33-41-21 26-21 26v22a2228 2228 0 0 0-2 3v-26l20-25 23-29 13-7a289 289 0 0 1 41-15c2-2 10-5 13-5l-11 5a2496 2496 0 0 0-42 18l-11 4 25 31 27 33 2 3 8-3 11-5 6-4 10-4 15-7 10-4 4-1c3 1 0 2-38 19l-25 11v5a820 820 0 0 0-4 63l-1-15z"/>
    <path d="m1052 1576-1-20h-13l-12-1v18c-1 16-1 21-2 19v-39h14l15 2v39l-1-18zm59-17c-2-16-1-19 1-20l13-5 10-4v15l-1 14-10 5-12 4-1-9zm11 3 10-4 1-13v-11l-10 4-11 3v12l1 12 9-3zm32-13-1-15v-14l5-1 12-5 8-3v15l-1 14-10 5-12 4h-1zm22-22v-12l-7 3a658 658 0 0 1-13 6v11c-1 13-1 12 10 7l9-4 1-11zm22-11-1-33-16 8-17 7 5-3 6-4c3-3 8-5 11-5l3-1 5-3 4-2-9-10a2479 2479 0 0 1-49-50l-6 2-19 8c-2 0 3-5 6-7h4l9-3 7-4 15 16c24 25 45 47 44 49a753 753 0 0 0-2 35zm-159 14-10-3c-2-1-1-22 1-26s5-6 9-6c2 0 7 5 8 10 3 8 4 26 1 26l-9-2zm9-7c0-6-2-18-5-22s-6-5-9-2c-3 4-4 10-4 19l1 8 5 1 9 1c2 0 3-1 3-5zm-728-48c-45-10-90-52-132-119-14-23-17-29-15-30s3-1 5 2l11 18c52 88 111 133 163 124 12-3 20-6 31-13 26-17 47-52 61-99 4-11 5-13 7-11 2 1 1 3-3 15-13 41-26 65-47 86a89 89 0 0 1-36 24c-9 3-11 3-24 4l-21-2zm918-39v-6c0-4 0-6-3-9-8-12-15-31-17-44a64 64 0 0 1 22-57l2-2 4 4c5 7 10 14 12 21a97 97 0 0 1-1 52c0 3-6 13-13 24-4 7-5 8-4 12l-1 5h-1zm6-21 6-10c4-6 4-7 8-21 2-10 1-32-2-40-2-6-7-14-12-20l-2-2-6 6c-6 6-13 17-13 20l-2 6c-2 7-1 24 2 35l13 30 3 1c2 0 3-1 5-5z"/>
    <path d="m1239 1414-1-9c1-7 0-9-6-18-4-5-5-6-3-6l5 6 4 5 1-8c0-7 0-8-5-16-5-10-6-14-1-7l4 7c2 5 3 2 3-13l1-13 1 18v18l4-4 4-2-4 6-5 4v20l4-2c4-3 8-4 4-1-6 6-8 9-9 14l-1 5v-4zm-893 12c-5-1-7-3-8-6-3-6-1-9 9-17 16-14 28-28 36-46 9-17 19-46 21-60v-23l-16 25c-7 14-12 20-25 33-12 12-24 21-28 21-3 0-7-5-7-8 0-5 6-17 14-28l14-19c6-9 15-24 13-24l-8 4c-7 3-16 5-15 3l8-4c10-4 17-8 18-11 3-6 2-17-1-17l-14 14c-15 17-22 23-28 27-4 1-6 2-7 1-3-1-7-5-7-8-2-6 4-16 18-32 10-11 14-18 14-25s-2-7-9-1c-13 11-24 17-34 17-4 0-9-4-9-8 0-3 5-10 15-19 12-12 15-18 11-21-1-1-3 0-10 3-11 6-14 6-16 2v-7c2-6 4-11 6-11 3 0 3 3 0 9l-2 7 10-4 11-5c2 0 4 1 5 3 2 1 3 3 3 6 0 6-3 10-16 23-11 11-13 14-11 16 5 3 20-3 32-13 9-8 11-9 15-7 4 1 5 4 5 10 0 8-4 16-18 30-8 10-14 18-15 22 0 4 1 8 4 8s12-7 22-19c15-16 24-24 26-24l4 3c3 2 3 4 3 8l1 6c1 0 10-14 13-22 15-34 16-89 2-159-6-32-17-74-28-104-24-71-54-118-87-134a58 58 0 0 0-75 18l-4 5c-3 0-2-2 2-9 8-11 24-21 37-23 24-4 46 4 67 25 33 33 62 96 84 188 22 88 24 158 4 197-4 9-9 16-14 21l-7 13c-5 11-9 18-23 36-10 14-18 28-18 33s11-1 25-15c11-11 19-21 26-34s12-20 16-24c4-5 6-5 8-2 5 5 2 34-5 52a154 154 0 0 1-54 85c-8 7-9 9-5 12 2 2 3 2 10 2l11-3c13-5 26-18 36-32 10-15 15-25 25-55 7-22 7-21 9-21 3 0 2 3-3 19-12 36-20 52-35 70a78 78 0 0 1-40 27h-11zm990-23-1-16v-13h-5c-7 0-7 0-8-2h13v-3c0-4-1-6-14-20l-15-17c0-2 3 2 19 19l9 9v-32l-14-13c-13-13-16-17-8-12l3 3 4-4c3-4 5-5 5-3l-4 5-3 4 9 8 9 9 7-8 6-8c2 0 1 2-5 10l-7 8v20l5-5c7-11 20-27 21-27 2 0 0 3-17 25l-8 10v11c0 10 0 11 2 11l5-2c6-1 15-6 21-12l9-14 4-8v-12c0-12 0-12-4-20-5-11-12-19-23-24-6-3-8-4-17-4-11 0-17 1-26 8-8 5-13 10-17 20-8 15-7 26 0 42 3 6 12 15 18 19 4 2 5 4 2 4-4 0-18-12-21-20-5-10-7-16-6-24l1-14 2-7c3-7 12-17 21-23l7-5 5-1c7-2 19-1 27 1 20 6 34 26 34 48 0 11-2 17-7 26-7 12-19 21-31 23l-6 1v15c0 14 0 19-1 14zm-689-83-1-2 8-6c22-14 39-42 46-75 3-12 3-26 1-25l-12 1-15-1c-6-4-6-4-3-25 2-16 2-24 3-49 0-33 0-33 8-37 5-3 6-3 32-6 12-1 14-3 17-11 2-8 3-42 1-65a500 500 0 0 0-112-271c-33-36-88-73-136-92-11-5-13-6-11-9 1-1 3 0 12 4a379 379 0 0 1 204 193 523 523 0 0 1 49 221c-1 18-2 21-5 27l-2 4 31-8c42-10 39-9 49-10l13 1c23 8 28 28 11 45-6 6-19 12-25 12s-6 1-1 3l8 5c12 10 11 24-1 36-7 6-12 9-21 10l-28 5a1114 1114 0 0 1-89 12c0 1 10 1 22-1h6l2 3c4 11-6 49-19 71-9 16-22 30-33 37-7 4-7 5-9 2zm46-118 59-8 14-2c8-2 9-2 4-6-17-10-15-31 4-43 4-3 2-3-4-2a1310 1310 0 0 1-89 16c-2 0-2 1-3 7l-4 36c0 4 0 4 3 4l16-3zm108-17c15-5 25-21 19-31-4-9-11-13-22-14-10 0-19 3-26 9-12 11-13 23-3 33l10 5 6 1c3 0 11-1 16-3zm-68-40a1335 1335 0 0 1 53-10c-4-2-11-7-14-12-3-4-3-5-3-10 0-9 3-15 11-22 6-6 6-6 0-4a671 671 0 0 1-74 18l-23 6h-4v42h4l50-8zm77-13c12-2 22-8 28-18 2-4 3-6 3-10l-1-9c-2-3-8-8-12-10-8-5-22-4-33 0-7 3-17 11-20 17-7 13-1 26 15 31h20zm-116-27 9-3-17 2c-5 2-6 5-3 4l11-3zm975 160c-84-5-206-32-367-82-91-28-258-87-278-99-8-5-15-12-19-20-3-7-3-15 2-24 3-6 7-10 31-35a668 668 0 0 1 129-102 849 849 0 0 1 251-93c11 0 64 20 132 50l58 26c128 56 183 81 253 116 77 39 102 54 124 79 28 32 29 67 3 95-34 37-110 70-187 83-38 6-88 9-132 6zm83-6c87-6 161-31 216-72 12-9 20-17 26-27s7-16 7-28c0-11-1-17-6-26-9-18-30-40-55-55l-5-3-10 4c-19 9-39 21-61 38l-11 8-5-2a35389 35389 0 0 1-302-126c0-3 14-15 27-24a498 498 0 0 1 71-38l-23-11a5603 5603 0 0 1-152-65c-20-8-43-15-49-16a834 834 0 0 0-232 81c-37 21-67 41-96 66-15 11-70 66-76 72-7 9-9 21-5 29 3 5 11 12 18 16 17 9 114 45 200 74 143 48 289 86 389 100 38 5 97 8 134 5zm112-174c17-12 33-22 50-31l17-9-7-4a2671 2671 0 0 0-277-131l-23 12a307 307 0 0 0-73 47c2 2 117 50 247 103 59 24 54 22 55 21l11-8z"/>
    <path d="m1812 1242 1-3h4l-4 5-1-2zm9-17c0-2 2-4 3-4v5c-2 1-3 1-3-1zm9-16c0-2 3-5 4-5 2 0 1 3-1 4-2 2-3 2-3 1zm10-16c0-1 4-4 5-3 2 1 1 2-1 3h-4zm12-15c0-1 2-4 4-4 1 0 2 2 0 4h-4zm13-14c0-2 5-6 6-5l-5 6-1-1zm-17-3-1-3c1-1 6 1 6 3s-3 1-5 0zm-18-8-1-2 6 3c0 2-4 1-5-1zm49-4 3-2c2 0 3 1 1 3s-4 1-4-1zm-66-1c-2 0-3-2-1-3 1-1 5 1 5 3h-4zm-19-7v-2c1-1 5 0 5 2 0 1-5 1-5-1zm99-3c0-2 3-4 4-4 2 0 1 3-1 4h-3zm-116-3c-2-1-1-3 2-3l2 2c0 2-3 3-4 1zm-18-6c-3-2-2-3 1-3 2 0 3 0 3 2s-2 3-4 1zm149-3c0-2 4-5 5-4s-2 5-3 5l-2-1zm-167-4c-2-1-2-2-1-2 2-1 5 0 5 2h-4zm-17-6c-2-1-2-2-2-3 1-1 5 1 5 2 0 2-1 2-3 1zm200 0 3-4c3-1 4 0 1 2-3 3-4 3-4 2zm-219-7-1-2h5c2 2 0 4-4 2zm236-5 3-2c2 0 2 0 2 2l-3 2c-2 0-2 0-2-2zm-255-2c0-2 1-2 3-2l2 2-3 1c-1 0-2 0-2-2zm271-5 2-2c3-3 5-1 3 2h-5zm-288-2c-1-2-1-2 1-2 3 1 4 4 1 4l-2-2zm307-5c-1-2-1-3 1-3 3 0 4 1 2 4-2 1-3 1-3-1zm-325 0c-2-2-1-3 2-3l2 2c0 2-2 3-4 1zm-19-7c0-3 0-3 3-2l2 2c0 2-4 1-5 0zm-17-6-1-2c1-1 6 0 6 1 0 2-3 2-5 1zm-17-7c-2 0-3-3-1-3 1-1 5 2 5 3h-4zm-19-7c-2-1-1-2 2-2l2 2c0 1-3 2-4 0zm-19-6c-1-2 2-3 4-2 3 0 3 3 0 3l-4-1zm-17-7c-1-2-1-2 2-2l3 2c0 3-4 2-5 0zm-16-5c-2 0-3-3-2-4l3 1c3 2 2 4-1 3zm-19-8-2-2c1-1 6 1 6 3s-2 1-4-1zm-19-6v-2c1-2 4 0 4 2h-4zm-18-7v-2h4l1 2h-5zm-18-6v-2c2-1 5 0 5 2s-5 1-5 0zm-17-6c-2-1-1-3 1-3s3 2 3 4l-4-1zm-18-6-1-2c0-1 1-2 3-1 2 0 3 1 1 3h-3zm-17-7c-3-1-3-2 0-3l2 2 1 2-3-1zm-19-7c-2-1-2-2-1-2 1-1 5 1 5 2h-4zm-18-6-1-4 4 2c3 2 1 4-3 2zm-18-7-2-2c1-2 6 0 6 1 1 3-2 3-4 1zm-18-7c-2-1-2-2-1-2 2-1 6 1 6 2-1 2-4 2-5 0zm-17-5c-2-1-3-4-1-4s4 1 4 3-1 2-3 1zm-19-7c-1-2-1-3 1-3s4 2 4 3h-5zm-19-7 1-2c1-2 4 0 5 2h-6zm-17-6-1-2 3-1 2 2c1 1-2 2-4 1zm-18-7c-2-2 1-4 3-2l1 2h-5zm-17-6-2-2c0-2 5-1 6 1 0 2-1 2-4 1zm-18-6c-2-2-2-2-1-3 2-1 5 1 5 2-1 2-2 2-4 1zm-19-7c-2-2-1-3 2-3l2 2c1 2-2 2-4 1zm-17-6-1-3c1-1 4 1 4 2 0 2-2 2-3 1zm-875 344a165 165 0 0 1-69-76c0-3 2-2 4 1l18 30c15 19 32 34 49 43 7 4 9 5 8 6s-4 0-10-4zm-152 0a975 975 0 0 1-61-251c-2-22-2-23 2-23l2 1 3 26a928 928 0 0 0 58 246c-1 2-2 2-4 1zm717-15 2-3h2c1 2 1 3-2 3-1 1-2 0-2-1zm14-13c0-1 0-2 2-3s3 0 2 2-3 2-4 1zm12-15c0-2 3-4 4-3v2c-1 2-4 2-4 1zm11-16 2-3c1-1 1-1 1 1-1 2-3 4-3 2zm-431-17-3-46 3-1c2 0 3 2 4 23 1 23 1 24-1 24h-3zm440-1 2-2 1 2c-1 2-3 3-3 0zm-674-6c-16-2-36-8-48-14-22-11-40-28-48-46-5-11-7-18-8-31-1-21 6-41 21-64 7-10 24-28 36-36 26-19 52-26 74-20 21 6 40 24 54 51 13 25 19 47 20 74 2 46-17 75-56 83-13 3-33 4-45 3zm19-14c14-17 22-31 25-47 4-23-1-58-11-77-12-23-32-40-62-50-11-3-10-4-23 7-20 16-37 41-44 65-2 8-2 12-2 23s0 13 2 21c10 29 35 51 72 62 11 3 23 5 30 5h6l7-9zm27 6c14-4 22-8 31-17 11-10 16-22 18-44 3-27-6-65-20-91a92 92 0 0 0-45-44c-7-3-9-3-19-3-13 0-20 1-36 9-10 4-12 6-8 6 6 0 25 9 38 17 18 12 33 33 38 54 5 19 6 54 3 68-4 13-12 27-24 41l-6 7h10l20-3zm636-2v-2c0-2 3-3 3-1s-2 4-3 3zm5-18c0-2 2-4 3-4 1 1 0 5-2 5l-1-1zm6-19c0-3 2-5 2-3 1 1 0 3-1 4s-1 1-1-1zm4-19c-1-2 1-4 2-2 1 1 1 4-1 4l-1-2zm3-19 2-3 1 2-2 3-1-2zm-476-10a594 594 0 0 0-5-30l3-1c2 1 2 1 5 14l2 16-5 1zm478-8c0-2 1-4 2-3v4l-2-1zm2-19c0-2 1-4 2-3v4l-2-1zm2-19c-1-2 0-4 1-3v4l-1-1zm-495-21c-15-67-38-133-63-183-5-10-5-12-1-12a795 795 0 0 1 70 197c-1 2-5 1-6-2zm495-17 1-2 1 2-1 1-1-2zm-185-6c1-2 5-3 5-1l-4 2-1-1zm-582-2a261 261 0 0 1 1-60c4-19 7-28 10-26l-2 8c-5 15-7 37-6 62l-1 17c-1 1-1 1-2-1zm600-3c1-2 5-2 5 0l-2 1-3-1zm19-5c0-1 1-3 3-3s2 2 1 3h-4zm18-6c1-2 4-2 4-1l-2 2-2-1zm19-5c0-2 2-3 4-2v2c-2 2-4 1-4 0zm18-7c0-1 2-2 4-1s1 2-2 2l-2-1zm92-4-1-2 1-2c1 0 2 1 2 3l-1 2-1-1zm-74-1c0-1 1-3 3-3s2 2 1 3h-4z"/>
    <path d="M220 955c-1-2-1-3 1-6 3-4 2-6-3-6-4-1-4-1-4-3l3-9 2-7-6 1-8 1c-4-1-7-6-7-10 0-5 5-17 10-25l3-6c0-2-7 0-15 4-10 5-13 5-16 0-5-7-1-20 12-37l4-5c0-1-6 2-15 8l-10 5c-3 0-7-5-7-10 0-12 10-29 27-48 5-4 8-8 8-9-2-2-6-1-12 2-8 4-19 15-32 32l-13 15-4-3c-5-5-2-22 9-45 7-15 14-24 27-37 13-12 18-19 19-25 0-4-1-8-5-10-7-4-31 14-43 32s-21 43-25 72c-2 12-2 13-4 13s-2-1-2-4c1-8 2-19 5-30 8-33 19-55 38-72 19-18 34-22 39-10 5 11 1 18-19 38-16 16-20 23-28 39-5 13-8 23-8 30v7l3-4 10-13c9-12 24-27 31-30 7-4 13-4 16-1 5 4 4 6-8 19l-14 18c-8 10-12 24-9 28 2 1 2 1 6-2 5-4 21-12 24-12l3 2c2 2 1 4-6 13-11 14-16 27-13 31 1 2 2 2 9-1 4-2 10-5 13-5 6-2 6-2 9-1l2 4-5 11-7 15c-2 7-2 7-1 10l4 2c5-2 14-2 16-1v6l-2 7-2 4 4 1 4 4c1 3 1 4-2 9-3 6-4 7-6 4zm658-3 2-2c1-1 4 0 3 2h-5zm19-6 2-2c2 0 3 2 0 2-2 1-2 1-2-1zm53-19 3-2c2 0 2 0 1 1-1 2-4 2-4 1zm-20-7 1-3c1 0 2 3 1 4-1 2-2 1-2-1zm39 0 2-2 2 1-2 2-2-1zm18-6c-1-1 1-3 3-3s1 3-1 3h-2zm18-7 1-2c2-1 4 1 2 2h-4zm-78-6c-1-1 0-3 1-3l1 3c0 2-1 3-2 0zm96 0c-1-1 0-3 2-3s2 0 1 2-2 3-3 1zm18-8 2-2c2 0 2 0 1 2l-3 1v-1zm16-7c0-1 2-2 5-2v2c-1 1-5 2-5 0zm-133-2v-4c1 0 2 3 1 4h-1zm151-5 3-2 2 1-3 2-2-1z"/>
    <path d="M78 874a483 483 0 0 1 31-133c15-34 36-60 61-72 14-6 19-7 36-8 15 1 25 2 36 8 5 2 6 3 4 5-1 1-3 0-12-2a81 81 0 0 0-81 14c-28 24-50 70-62 132l-7 53c-1 5-1 6-4 6-2 0-2-1-2-3zm1015-2c0-1 4-3 5-2l-2 2h-3zm-174-6c-1-3 0-6 1-4v3l-1 1zm192-1c0-2 3-3 4-2l-3 3-1-1zm17-9 3-1 2 1-2 1-3-1zm18-7 2-2 2 1-2 2c-2 1-2 1-2-1zm-234-3 1-2c1-1 3 1 3 3s-3 1-4-1zm252-5 2-2c2 1 2 3-1 3-2 0-2 0-1-1zm16-7c0-1 4-3 5-2v2h-5zm-273-5c-2-1-1-3 1-3l1 2c0 2-1 3-2 1zm292-2c-2-1-1-3 1-3l2 1-3 2zm107-9v-3h1v4c-1 1-1 1-1-1zm-90 0v-2c2-1 3-1 3 1-1 2-3 2-4 1zm-318-7v-3c1-1 4 2 3 3 0 1-2 1-3-1zm335-2 2-2 2 1-2 2-2-1zm16-8c0-1 2-2 5-2v2c0 1-5 2-5 0zm56-2c-1-2 0-4 1-4l1 3c0 3-1 4-2 1zm-415-6c-1-2 0-2 1-2 2 1 3 4 1 4l-2-2zm376 0 5-2v2h-5zm18-9c1-2 4-2 4-1l-2 2-2-1zm19-6c0-2 0-3-1-2v-1c2-3 3-2 3 2l-1 4-1-3zm246 2v-3h2c1 2-2 5-3 3zm-668-3c-2-2-1-3 2-1v2c0 1-1 1-2-1zm105-7c-6-3-8-5-10-9-3-5-3-10 0-18 2-5 2-5 0-8-3-3-3-11 1-18 2-6 11-15 20-21 6-4 7-6 5-8-2-1-1-7 2-11 3-5 8-9 19-16 5-4 11-16 14-29 2-9 2-9 1-17-2-8-5-17-7-17l-3 4c-3 5-16 15-26 19-20 11-49 17-84 18l-18 1c0 2-6 8-9 10-5 2-12 1-18-2-7-3-25-17-46-36-18-16-23-20-33-24l-6-4-20 1-20-1-13-4a1650 1650 0 0 0-61-16l-74 46-3 2-24-7a12426 12426 0 0 0-199-57c0-2 20-13 44-26l10-6h-5c-9-2-85-2-100 0-45 4-80 13-100 26-6 4-16 12-18 16-8 17 2 41 32 71 24 24 60 51 108 81 9 6 11 8 8 10-2 0-10-4-34-20-67-44-109-84-119-114-6-18-2-32 14-44 59-44 218-45 397-3a1593 1593 0 0 1 138 40l3-6c9-17 27-38 41-49l8-6-8-5a168 168 0 0 1-68-120c-1-4-1-5-4-6-4-3-8-9-8-13-2-10 3-21 11-23 3-1 3-1 3-5-4-19-4-40-1-53s7-21 12-25c6-4 13-6 21-6 8-1 13 2 17 9 3 4 3 5 3 14 0 7 0 11-2 15l-2 6 7-3c10-4 13-5 17-2l3 5-9 10-11 14c-4 7-7 15-6 17 0 1 2 3 5 4 9 5 11 13 8 26-2 7-6 10-12 12-5 1-4 1-3 13 6 47 37 80 92 95l13 4 1-8c2-11 7-22 12-25l12-1 11 2c4 1 1-1-7-5-20-8-35-21-45-41-4-8-6-10-10-13-13-9-17-26-11-39l7-10 6-9c1-3 2-5 4-6l3-1-3-1c-7-4-9-10-5-18 3-7 12-13 21-13 2 0 4-1 8-5a92 92 0 0 1 132 9c13 16 21 38 21 57l-3 20c-4 17-5 20-2 25s7 6 19 6c8 0 10 0 16-3 12-6 20-18 33-47 3-7 5-11 8-14 4-3 6-4 8-2 9 7 8 17-2 23l-5 7c-4 8-13 23-20 31-9 9-15 13-25 17-7 3-9 3-20 3h-12l4 3c6 6 10 16 6 16l-1-1c0-3-7-12-10-14-3-1-3-1-10 2-6 3-7 4-4 6 3 3 6 10 8 18 2 12 1 24-3 35l-2 8 21 8 2-28c-1-1 3-3 4-2l-3 27v5l9 5c13 7 22 14 31 24 14 14 22 31 24 50 3 22-3 59-13 78-2 5-3 7-3 13 0 10-2 17-7 24-7 9-19 14-25 12-3-1-3-1-7 5a87 87 0 0 1-47 36c-9 2-14 2-19 0zm22-4c20-7 39-26 46-44 4-9 4-12 0-16-5-6-17-12-32-14-8-2-9-2-12 0-14 7-26 18-30 26l-3 9c0 3 2 7 3 7s5-4 9-10c5-6 7-9 8-8s-3 8-11 17c-5 6-9 16-9 20s4 10 8 13c6 3 15 3 23 0zm60-41c5-2 13-9 17-16 3-7 4-16 2-22-2-5-10-13-16-16-10-5-25-9-35-9-8 0-16 4-24 11s-11 17-4 15c12-3 40 5 48 15 4 4 4 5 4 11l-2 9c0 3 0 3 2 3l8-1zm24-49c3-5 6-18 9-28 2-8 3-30 3-40-2-23-9-38-24-55-10-10-22-18-35-25l-28-11-6 4c-13 9-37 16-61 16h-8l-2 10a201 201 0 0 0-4 79c1 7 1 7 16 4 35-5 59-15 72-31l4-5-5-6-7-5-4 7c-2 5-3 6-4 5-2-3 4-14 11-22 6-5 10-7 10-5l-6 6-6 5 6 5c12 11 18 22 19 36 0 10-2 20-8 31l-4 8h7c9 0 25 4 35 9 5 2 8 5 12 9l5 5 3-6zm-202-32c8-5 10-16 10-40 0-16 0-20-2-26-9-33-28-56-50-62-6-2-19-2-25-1l-12 5c0 2 36 15 48 17 8 1 12 3 11 4-1 2-5 1-19-2-15-4-29-9-39-14l-6-4-7 5a163 163 0 0 0-45 54l7-1c14-2 25-1 37 5 8 4 15 8 29 21l34 30c15 11 22 13 29 9zm44-11-2-7c-4-20-2-46 5-80l2-9h-5c-20-3-40-9-46-15-4-4-8-11-8-15 0-3 0-3-8-4-11-3-26-8-37-13-24-12-46-33-55-54-6-12-9-28-10-41l-1-4h-20l-21-1v3l3 15c8 43 28 75 61 100 12 9 11 9 21 5l15-4h17c13 3 20 7 31 18 9 9 11 12 16 21a113 113 0 0 1 12 77l-1 8 31-1zm-299-48 37-24-83-21c-46-10-104-19-140-22l-15-1-13 7-40 23 8 3 114 31 59 17a1563 1563 0 0 1 35 10l38-24zm348-55c12-4 23-9 30-16l5-5-9 4c-7 4-10 5-26 10h-7l-1-2 11-3c12-3 24-9 30-14l4-4 1-12c0-17-2-27-7-32l-4-4-10 4a158 158 0 0 1-77 15h-29l-3 3c-5 5-7 13-7 25 0 11 0 12 2 16 3 5 10 9 23 13 14 4 20 5 43 5 20-1 22-1 31-3zm-17-66c13-4 24-11 35-21l6-7-5-3-8-9c-4-6-8-18-9-27l-1-6-9 7c-23 18-23 18-34 18s-15-2-24-11-12-10-17-5c-3 3-2 3 2 2h3c2 1 1 2-3 3-3 1-4 2-6 5l-1 5c0 4 4 9 8 9 4 1 4 4 0 4-2 0-4-1-7-4-4-4-4-4-4-10v-5l-4 2c-6 4-11 5-18 5h-7l3 5c13 26 39 44 68 46 5 1 25-2 32-3zm35-12 22-12-7-1-6-1-9 9-9 9 9-4zm54-16c18-3 38-23 49-47l5-8c2 0 8-6 8-9 1-3-2-10-5-10-1 0-8 7-8 10-1 3 1 3 4 0 6-4 6-2 1 3-3 4-3 4-5 2s-2-2-7 10c-9 20-18 32-29 38-4 2-7 2-16 3-16 0-21-1-25-9-2-4-2-12 2-26l3-19a88 88 0 0 0-36-70c-3-1-3-1-3 1h-1l-1-3-9-5a89 89 0 0 0-86 6l-11 8h9c10-2 46-1 62 2 14 2 20 5 22 10 3 5 1 9-5 16l-5 7 7 3c7 3 7 3 8 8l3 21c4 31 6 37 12 45 7 10 17 14 38 14l19-1zm-176-24c7-2 14-7 18-14 3-4 3-6 4-13 0-7 0-8-3-14-4-7-10-13-17-15-9-3-26 0-22 4v3l-1 3c0 2 1 2 4-1 4-4 7-5 7-3l-6 7c-5 5-8 10-7 12l10-9 11-9c3 0 0 3-10 13-11 12-11 12-9 25 3 10 3 11 7 11h14zm73-1c7-4 12-8 15-14 7-15 1-33-14-40a29 29 0 0 0-41 26c0 9 2 14 7 20 6 6 10 8 15 9s16 0 18-1zm-95-5c-5-15-5-29 0-46 0-2 0-2-2-1-6 5-13 17-13 24 0 4 3 13 6 18 4 6 10 9 9 5zm121-14 6-6-2-10c-2-17-3-21-6-22l-25-3-5-1 7 3c9 5 14 9 18 17 3 7 4 14 2 22l-1 5 6-5zm-69 1v-16c3-12 10-19 22-24l6-3a715 715 0 0 0-78 2c-3 3-1 3 4 1 8-5 26 0 34 10 5 7 7 13 7 23l-1 8h3l3-1zm-141-6 8-1c5-1 8-4 9-11 3-11 2-17-5-20-4-2-6-2-29-2s-25 0-28 2c-4 3-7 7-8 13-1 9 6 17 16 19h37zm4-43c1-8 6-16 17-27l9-11c0-5-7-4-19 2-5 3-9 4-9 3l3-8c2-6 2-9 2-18s0-10-2-13c-5-7-13-9-23-6-11 4-16 9-20 25-2 6-2 10-2 27 0 20 1 29 3 31l21 1h19l1-6zm194 4-4-2c-4 0-4 2 0 3 5 1 5 1 4-1zm-45-3c0-1-3-2-15-2-15 0-22 1-22 2l19 1 18-1zm47-4c2-2 8-11 8-13 0-6-5-9-21-12l-40-1c-43 0-51 1-57 11-4 7-4 9 0 12l3 3 32-1 47 1c15 2 24 2 28 0z"/>
    <path d="M943 614c-3-3-3-4-3-8 0-5 1-6 5-9 4-2 7-1 11 3s4 4 3 7c0 4-2 7-6 9s-6 1-10-2zm10-3c4-4 4-6 0-9-3-4-4-4-7 0-4 2-4 6-1 9s6 3 9 0zm-3-33c-6-3-8-10-4-15 1-2 6-5 9-5s8 4 9 8c2 7-7 15-14 11zm8-5c4-4 4-6 0-9-3-3-3-3-6-2l-4 4c-1 3-1 3 2 6 3 4 5 4 9 1zm-77 48c3-8 3-12 3-24v-14c2 0 3 9 3 21 0 11-2 18-4 19-2 0-2 0-2-2zm-13-67c-5-8-5-10-2-9 2 1 10 15 10 16-2 2-3 1-8-7zm42-71c-9-2-12-3-11-5l11 1 21 1c11 0 12 0 10 3h-31zm45-3c1-1 19-8 20-7 2 1-1 3-8 5-10 3-12 4-12 2zm-30-32c-2-2-1-3 5-3s10-2 15-8c3-4 5-4 4 0-1 3-9 10-13 11h-11zm100-17c-2 0-4-3-2-3s5 3 4 3h-2zm-10-10-1-4h1c2 1 3 5 1 5l-1-1zm-5-18c0-3 1-4 3-2l1 5-2-2c0-2 0-2-1 0s-1 2-1-1zm11-9 1-3c1 0 1 5-1 6v-3zm-19-1v-3c1 0 2 1 2 3l-1 2-1-2zm22-11v-10l1 6c0 5 0 6-1 4zm-23-2v-4l1 3c0 2 0 2-1 1zm0-15c0-2 1-3 2-3l1 2-1 2-1 1-1-2zm20-3c-2-2-3-4-1-4 1 0 3 3 3 5-1 1-1 1-2-1zm-11-7v-2h3l-1 1c-1-1-2 0-1 1 0 1-1 2-1 0zm-3-26c-1-2-1-4 1-4l1 1 1 2c0 2-1 2-3 1zm-7-13c-2-3 0-4 2-2s2 3 1 3l-3-1zm-119 73c-2-3 0-7 3-7l3 2c2 4-3 8-6 5zm66-1c-1-2 1-6 4-6s4 6 1 7c-2 1-4 1-5-1zm-31-9 19-20c5-3 1 3-7 11-9 9-12 12-12 9zm17-7c0-2 10-12 11-11 2 0 1 2-4 7-4 5-7 6-7 4zm386 395c0-2 2-3 3-2s1 1-1 2h-2zm-448-5-2-2h5c1 2-1 3-3 2zm683 0v-3l1-2 1 2c0 2-1 5-2 3zm-253-2c0-3 2-2 3 0l-1 2-2-2zm35-1c-1-2 0-4 2-4v4h-3zm15-9 4-4c2 0 1 3-1 3l-3 1zm-492-4c-1-2 1-4 3-3 1 1 0 4-2 4l-1-1zm439-4c-1-3-1-3 1-3 1 0 2 1 2 3 0 3-1 3-3 0zm259 1 2-4v5l-2-1zm-189-3 1-2c3-1 5 0 3 1-2 2-4 2-4 1zm-521-9v-3c1-1 4 2 3 3 0 1-2 1-3-1zm538-1 4-3c1 1-1 4-3 4l-1-1zm174-6 1-3c1-1 1 0 1 1l-1 3c-1 1-1 0-1-1zm-264-1v-3c2 0 3 2 2 4 0 1-2 1-2-1zm105-3c0-1 4-2 5-1l1 1h-6zm-565-3-1-3c1-1 4 1 4 2 0 2-1 2-3 1zm583-5c-1-2-1-2 1-3l2-1v3c-1 2-2 2-3 1zm141-9 1-3 1 4-1 3-1-4zm-269 1c0-3 2-2 3 0l-1 2-2-2zm-469-1v-3l4 2c-1 2-3 2-4 0zm613-2c0-2 3-4 4-3l-1 2c0 2-3 3-3 1zm16-10 4-2v2c0 1-4 2-4 0zm-642-1c-2-1-3-3-1-3l3 2c1 2 0 3-2 1zm477-3c-1-2-1-4 1-3v5l-1-2zm271 0c0-2 1-6 2-5l1 3c0 3-2 4-3 2zm-89-6 1-2h3c0 2-4 3-4 2zm-674-3-1-3c1-1 4 1 4 2 0 2-2 2-3 1zm690-8c0-2 2-3 3-2 1 0 0 3-2 3l-1-1zm-205 0v-4c2 0 3 1 2 3 0 2-1 2-2 1zm273-3v-3c2-1 3 2 2 4-1 1-1 1-2-1zm-774-1v-3c2 0 5 1 3 3h-3zm722-6c-1-1 2-3 3-2s1 1-1 2h-2zm-737-5v-3c1 0 4 2 3 3 0 2-3 1-3 0zm509-4c-2-2-1-3 0-2 2 1 3 4 1 4l-1-2zm273-1c-2 0-1-3 0-3h2l1 2c0 2 0 2-3 1zm-29-1 1-2h3l-2 2h-3zm-769-4c-2-1-1-2 2-2l2 1c-1 2-2 2-4 1zm784-7 3-2 2-3v-2c1-1 1 0 2 1l-3 4c-2 3-4 4-4 2zm-800-2-1-2h4c1 2-1 3-3 2zm532-2c-2-1-2-2-1-2 3 0 5 2 3 3 0 1-1 1-2-1zm-550-7v-3c1-1 4 1 4 2 0 3-3 3-4 1zm833 0c1-2 4-4 5-3s-2 4-4 4l-1-1zm-1078-7v-3l5 3c0 2-4 1-5 0zm229-1-2-2c0-2 3-1 4 1s0 2-2 1zm556 0c-2-2-1-6 1-4l1 3c-1 2-1 2-2 1zm272-1-2-2c0-2 4-1 4 1 1 2 1 2-2 1zm37-2c0-2 3-4 4-3l-3 4-1-1zm-1111-3c-2-2-1-3 2-2 1 0 2 1 1 2h-3zm227-2 2-1 1 1-1 1-2-1zm-245-6c-1-2 0-2 2-1 3 0 2 2 0 2l-2-1zm1144-1 4-3-3 4-1-1zm-334-2-1-3c2 0 3 2 3 4 0 1-1 1-2-1zm270 1-1-2c1-1 4 0 4 2h-3zm-1098-5v-2c1-1 5 1 5 2-1 2-5 1-5 0zm1178-7c1-2 4-3 4-1 0 1-2 3-4 3s-2 0-1-2zm-1194 0c-3 0-2-2 1-2l2 2h-3zm1101-2-1-2h4c1 2-1 3-3 2zm-270-1 1-3c1-2 3 1 2 3h-3zm-850-5c-1-1 1-2 3-1l2 2-5-1zm1227-3c-1-2 2-3 3-2l1 2h-4zm-1244-3c-2-2-1-4 2-2 2 1 3 3 1 3l-3-1zm1124-2v-3c1-1 3 1 3 3s-2 1-3 0zm-1273-2c3-3 4-3 3 0 0 2 0 2-1 1h-2v-1zm1005 1c-2-1-3-4-1-4l3 3c0 1-1 2-2 1zm-873-5c-2 0-2-2 0-2l2 1c1 2 1 2-2 1zm1276-1c-1-1 0-3 2-3l1 2c-1 2-2 2-3 1zm-1394-6c1-3 3-3 3-1l-1 2c-3 2-3 1-2-1zm99-1c0-2 0-2 2-1 3 1 2 3 0 3l-2-2zm878-1c-3-1-2-3 0-3s3 1 2 3h-2zm-894-5c-2-1-3-3 0-2 2 0 4 2 3 2h-3zm1325 0 4-3c1 1-1 4-3 4l-1-1zm-1342-7c-2 0-3-3-2-3 1-1 5 3 4 3h-2zm896-1-1-2c1-1 4 1 4 3l-3-1zm460-4c0-1 3-4 4-3l-1 2c-1 2-3 3-3 1zm-476-7c-1-2-1-2 1-3 1 0 4 1 3 3-1 1-3 1-4-1zm60-6c-6-2-8-4-8-6v-2l8 4 7 6v2l-8-4zm431 0c-1-1 0-3 2-3s2 1 1 3h-4zm158-1a1207 1207 0 0 1-158-16c-69-11-102-17-108-19-6-3-10-8-10-13 0-4 6-11 16-17 25-17 74-39 103-48l10-3h84l13 5c41 18 78 37 98 52 17 11 26 22 28 30 2 7 1 11-5 16-7 8-20 11-43 12l-16 1h-12zm39-6c21-2 30-6 33-13 3-8 0-15-12-26-18-17-56-38-102-58l-21-9-44-1h-40l-17 6a351 351 0 0 0-41 17c-16 6-48 23-61 33-2 1-4 4-5 7-2 3-2 3 0 6l7 5a2750 2750 0 0 0 205 31c30 4 78 5 98 3z"/>
    <path d="M1879 504c-1-1-1-1 1-1l3 2c0 2-3 1-4-1zm-18-8 1-2 3 2c1 1 1 1-1 1l-3-1zm-16-5c-2-1-2-2-1-3h3-1v3h-1zm-18-7h2c1 1 1 1-1 1s-2 0-1-1zm-57-16c0-2 0-2 2-1 3 1 2 3 0 3l-2-2zm-18-3c-2 0-1-3 1-3l2 2c0 2 0 2-3 1zm-18-5c-3 0-3-2 0-2 2 0 3 1 3 2v1l-3-1zm-20-5 2-1 3 1-2 1-3-1zm-18-4-2-1h2l4 2c0 1-1 1-4-1zm-19-3c-2-1-1-2 1-2l3 1-4 1zm-19-4c0-1 1-2 3-2 3 0 2 2-1 3l-2-1zm-19-5h5c1 1 1 1-2 1l-3-1zM295 528v-2c2-1 5 0 4 2h-4zm862-2c-2-2-1-3 1-3l2 1c0 2-1 3-3 2zm46-13c-13-8-17-12-13-11 3 0 30 16 30 18l-2 2-15-9zm-890 7 2-1 2 1-2 1-2-1zm826-5 2-1c3 1 4 3 1 3-2 0-3-1-3-2zm288-14-1-2h4c1 2-1 3-3 2zm-262-9c-32-16-72-21-104-12-12 3-13 3-13 1s11-5 23-8c13-2 47-1 59 2 15 4 42 15 42 17 0 3-2 3-7 0zm254-9v-3c3 0 4 3 2 4 0 1-1 1-2-1zm-8-36v-4c2 0 2 3 1 4h-1zm30-45a381 381 0 0 0 57-43v2a307 307 0 0 1-57 41zm200-7-10-48c-18-88-17-82-15-82l2-1a7530 7530 0 0 1 26 128 1160 1160 0 0 0 99-41l1 2-59 26-35 15c-7 4-8 4-9 1zm-254-2-1-3c1 0 4 3 3 4 0 2-2 1-2-1zm-15-11v-2c1-1 4 1 4 2 0 2-3 1-4 0zm-37-6 2-2c2 0 2 2 0 3l-2-1zm173-27c0-1 2-4 7-8 6-7 7-7 8-5l-13 14-2-1z"/>
    <path d="M1675 327v-1a1014 1014 0 0 1 48-16c-1 2-47 19-48 17zM82 294c-3-1-3-4 1-12 5-13 17-22 36-26 11-3 20-2 34 1l13 3c6 0 12-4 27-19 13-12 17-15 23-18 7-4 9-4 16-5 10 0 13 1 24 13 10 11 14 13 26 14 7 0 11 0 21-2 17-4 25-5 34-3 20 5 33 16 40 38 3 9 4 9-11 9l-52 2-89 1c0-2 9-2 75-3 74-2 76-2 76-4 0-3-6-16-10-22-6-9-19-17-32-19-6-1-17 0-32 3-12 3-24 3-31 0-8-2-11-5-18-13-10-12-15-14-27-10-9 2-15 6-29 20-23 21-26 22-45 18-23-6-45-2-59 10-5 5-10 15-10 19v3h27c0 2-1 2-5 2l-13 1-10-1z"/>
    <path d="M111 293c0-2 12-3 66-4 30 0 34 0 34 2l-27 1a1117 1117 0 0 0-73 1zm1550-6v-2a4233 4233 0 0 0 47-16 1767 1767 0 0 0-47 18zm-77-10c-1-3 26-23 30-21 2 1 1 3-5 6-4 1-10 6-15 9l-8 7-2-1zm-564-45h-47v-3a48 48 0 0 1 36-33c8-2 32-2 39-1l7 2c1 0 3-1 6-6 11-15 24-25 36-29 10-3 28-3 39 1s23 11 38 20c18 12 20 13 27 15s13 2 33 0c22-3 38-3 44 0 7 3 11 7 14 13 2 5 4 17 3 20l-55 1a2775 2775 0 0 0-12-2h65v-6c-1-12-6-19-14-23-7-4-20-4-41-1-23 3-34 3-42-1l-24-14c-28-17-39-22-54-23-11 0-20 1-29 6-7 4-21 17-27 26-4 6-3 5-15 3-9-2-30-1-36 0-15 4-27 13-32 24-5 10-9 9 44 9l47 1-2 2-48-1zm576-58-3-14 2-2a1198 1198 0 0 1 57-21c-1 1-11 6-25 11-19 8-29 12-30 14l2 11c3 11 3 14 1 14l-4-13zM493 132l1-8c3-16 6-23 15-28 8-4 18-4 37 1 16 4 24 5 28 3l12-9c12-10 17-12 30-13 15 0 20 1 29 12 12 13 15 16 21 17 7 2 10 3 24 1 14 0 26 1 36 6 7 4 17 13 17 16v2h-96a8076 8076 0 0 0-154-1zm247-3-4-5a62 62 0 0 0-52-13c-7 1-18-1-25-4l-9-8c-11-13-14-16-22-18-6-2-8-2-14-1-10 1-16 4-28 14-14 11-16 12-39 6-20-5-29-6-37-2-7 4-12 14-14 26v6h122l122-1z"/>
  </g>
  <path fill="#7a7a8f" d="M823 1661v-10l1 9 1 7c1-2 1-2 1 0l-1 3c-2 0-2-2-2-9zm2-5c0-3 0-3 1-2v4c-1 1-1 0-1-3zm-14-20c-5-1-7-2-6-3h7c5 1 6 2 5 3l-2 1-4-1zm-12-7h2v1c-1 1-2 0-2-1zm400-104zm-28-9 2-2 1 1-1 1h-2zm-105-68c-2-1-2-1 0-1l3-1h4c0 1-1 2-3 2-2 2-3 2-4 0zm51-20v-2c2-2 4-1 3 1l-3 1zm5-4c-1-1 2-2 3-1l-1 1h-2zm96-45 1-10v-8l1 10c1 9 1 10-1 10l-1-2zm-1-9c0-3 0-4 1-3v5l-1-3zm103 3c-6-1-16-7-15-8l9 2 10 4v2h-4zm-101-21 1-3v2c0 3-1 4-1 1zm3-8 4-7-2 3-2 4zm63-7v-1l-1-2v-3l-1-3c0-3 0-3 1-1l1 2c2 0 2 7 1 8h-1zm-2-16c0-5 1-7 2-4v3-1l-1 1-1 3v-3zM502 634l1-2h2l1 2h-4zm443-101h10l-6 1c-5 0-7-1-4-1zm-8-183 5-1 5 1-6 1-4-1zm0-3-9-1-7-1c0-2 2-2 11-1l12 1 2-1h4l2 1 4 1 3 1-4 1-5-1h-13zm-75-2c-1-1 0-1 2-1 3 0 4 0 4-2h1c1 1 3 2 8 2l7 1h-22zm-759-52 3-1h11l2 1-7 1-9-1zm103-2c2 0 2 0 1-1l12-1 16-1-4 1c-3 0-3 0-1 1 1 1-1 1-6 1a657 657 0 0 0-18 0zm55-2c0-1 2-2 6-2 5 0 6 0 4 1l-3 1h3c1 1 0 1-4 1l-6-1zm806-57-1-2a1104 1104 0 0 1 104 2c1 1-102 2-103 0zm-37-2h9c3 1 0 1-5 1-4 0-6 0-4-1zm174 0zm-686-98h10c2 1 0 1-5 1s-7 0-5-1z"/>
</svg>