<svg xmlns="http://www.w3.org/2000/svg" data-name="Layer 1" viewBox="0 0 1200 1200">
  <path fill="#e9e8e8" d="M441.9 467.3c110.7-74.8 365-274 498-158.2s60.4 672.6-332 612.7c-147.3-22.5-370-35-401.1-104-52-114.9 166-303.8 235-350.5Z"/>
  <path fill="#fff" d="m553.3 727.1 21.5 257.2s-66.4 45-67 47.7 114.6 1.3 114.6 1.3l-16.1-315Z"/>
  <path fill="#1d252e" d="M546.3 520.7c-10.4 68.3-16.6 127-18.7 154.9s-3 45.2-2.7 51.9q127.2 5 157.1-1.3t49.6-20.7C708 598.2 689.5 540 681.3 524c-12.2-23.8-57.2-31.9-135-3.3Z"/>
  <path fill="#fff" d="m693 817 58.7 109.7-43 78.2a2 2 0 0 0 2.6 2.7q88.8-42.6 93.8-48.2 5-5.8-6-28L728.3 776"/>
  <path fill="none" stroke="#1d252e" stroke-linecap="round" stroke-width="4" d="m697.5 825.3 54.2 101.4-43 78.2a2 2 0 0 0 2.6 2.7q88.8-42.6 93.8-48.2 5-5.8-6-28l-65.3-143.8" data-name="Path-94"/>
  <path fill="none" stroke="#1d252e" stroke-linecap="round" stroke-width="4" d="m613.1 851.3 9.3 182h-113a2 2 0 0 1-1.2-3.7l66.6-45.3L563 843.6"/>
  <path fill="#1d252e" d="M526.4 224.8q-9.6-14.9-6.3-26c3.4-11.1 15-27.7 38-31.5s46.5 10.9 58 31.3q11.5 20.5 10.5 48.1-3.3 9.9-9.8 11.9c-6.4 2-20.6 2.7-26.4-.7q-5.9-3.5-64-33.1Z"/>
  <path fill="#fff" d="m529.3 223.9-.9 17.9 7.9 18.1 13.6 10.7 12.2 3.2 6.1 19.1 3.4 13-20.3 1.2 7.4 23.1 55.7 4.2 20.6-31.3-31.3-2.3-12.9-35.8 5.5-15.7.7-13.5 7.9-3.4-1.6-13.6-7.9-4.8-11.5 1-10.6-9.7-1.8-10.4-24.5 23.6-17.7 5.4z"/>
  <path fill="none" stroke="#1d252e" stroke-linecap="round" stroke-width="4" d="M529.3 224a46 46 0 0 0 5 32.9q8.7 15.4 28.8 16.5l8.5 32.5c-5.7.4-9.3-.4-12.2.5m-29.9-83.8q4.9 1.6 16-4.9t26-22.8a20.7 20.7 0 0 0 4.3 13.5 19.8 19.8 0 0 0 11 7.6q9.4-5.7 14.7 1.4c5.3 7 4.7 14.4 2.4 16.3q-2.3 2-6.9 2.1 2.1 6-1.1 15.8t-5.8 11.2l12.2 38.3 18.7.5"/>
  <path fill="#e5d3a5" d="m683.6 502.5-9.6-102s22-89 7.8-93.7c-12-8.2-19.3-11.3-52-5q-37.3 26.4-54 20.6c-11-3.8-19-9-21.5-17.3-21.6 1-22.8 0-32 11.4s-10.6 11.3-12.3 16.3-8.3 53.8-4.3 58.2 32.8-11.8 32.8-11.8c-4.8 4.2 3.4 38.5 8.6 44.5-.3 3.2-.6 5.9-1.1 20 58.9-7.3 100.8 14.4 137.6 58.8Z"/>
  <path fill="none" stroke="#1d252e" stroke-linecap="round" stroke-width="4" d="M559.4 273a21.8 21.8 0 0 0 8.6.2 35.6 35.6 0 0 0 11.9-4.2m-31.1 83.1q-12 20.3-11.5 41t9.7 30.6l-1.1 20m63.4-25.4q14 11 24.8 11.7m-17.7-167.6a11.3 11.3 0 0 0 6.3-2q3.4-2 6.3-8.8"/>
  <path fill="#1d252e" d="M618.4 266.3c1.8.3 4.6-.5 8.2-2.5s6-5.5 7-10.4q5-1.5 12.7 6.5c7.8 8 8.6 20.7 14.5 25.7q5.9 5 16.1 7.8-27.1 12-42-1t-16.5-26.1Z"/>
  <path fill="#fff" d="M484 381.1c-6.2-5.2-7.3-42.7-13-114.3 0 0-7.4-4.2-8.5-10-3.7-19.7 3.7-31.2 23.4-34.6s.5 11.2 4.5 18q4 6.7 5.9 25.8l9.7 70.7 2.9.7a98 98 0 0 1 1.8 47.2s-22 1.6-26.7-3.5Z"/>
  <path fill="none" stroke="#1d252e" stroke-linecap="round" stroke-width="4" d="M497.6 384.6c-6.4 0-11.1-1.3-13.6-3.5-6.2-5.2-7.3-42.7-13-114.3 0 0-7.4-4.2-8.5-10-3.7-19.7 3.7-31.2 23.4-34.6s.5 11.2 4.5 18q4 6.7 5.9 25.8l9.7 70.7" data-name="Path-93"/>
  <path fill="#e5d3a5" d="M554.6 235.4c-1 .1-9-4.4-13.3-4.2a12.5 12.5 0 0 0-11.9 13.4 12.9 12.9 0 0 0 13.6 12c4.2-.3 11.7-5.6 12.6-5.7a7.6 7.6 0 0 0 7.2-8.1 7.9 7.9 0 0 0-8.2-7.4Zm-50.7-1.6c-1.5.1-14.1-7-20.8-6.6a19.5 19.5 0 0 0-18.5 20.9 20.1 20.1 0 0 0 21.1 18.7c6.7-.4 18.4-8.7 19.8-8.8a12 12 0 0 0 11.3-12.7 12.3 12.3 0 0 0-13-11.5Z"/>
  <path fill="#e5d3a5" d="M486 266.8c9-.5 15.7-9.7 15-20.7s-8.6-19.4-17.6-18.9m26 12.2-3.9.2c-2.4.1-1.5 13.7 1 13.6l4.2-.2"/>
  <path fill="#e5d3a5" d="M546 231.6c-1.4 0-14.1-7-20.8-6.6a19.5 19.5 0 0 0-18.4 20.8 20.1 20.1 0 0 0 21 18.7c6.8-.3 18.4-8.7 19.8-8.8a11.9 11.9 0 0 0 11.2-12.7 12.3 12.3 0 0 0-12.8-11.4Z"/>
  <path fill="#e5d3a5" d="M528.6 264.5c9-.5 15.7-9.8 15-20.7S535 224.4 526 225"/>
  <path fill="#fff" d="m603.5 323.9-21-63.8-3.5-22.4-15.6-12.3s-16.5-7.8-20-4.5 5.6 31.3 5.6 31.3l8.4 10 19.6 97.6 7.2 17.5 10.7 4.3L635 366"/>
  <path fill="none" stroke="#1d252e" stroke-linecap="round" stroke-width="4" d="m603.1 323.8-20.5-62.4q-1.8-19.2-5.8-25.9c-4-6.7-19.6-14.2-30.3-14.7s2.1 9.2 2.4 31.4"/>
  <path fill="none" stroke="#1d252e" stroke-linecap="round" stroke-width="4" d="M604.9 378.3q-14 3.6-19.3-.8-9.3-7.9-28.2-115.4l-8.7-9.4" data-name="Path-93"/>
  <ellipse cx="482.7" cy="247.1" fill="#fff" rx="14.5" ry="16.3" transform="rotate(-6.6 483 247.3)"/>
  <ellipse cx="482.7" cy="247.1" fill="none" stroke="#1d252e" stroke-linecap="round" stroke-width="4" rx="13.6" ry="15.3" transform="rotate(-6.6 483 247.3)"/>
  <ellipse cx="524.8" cy="244.8" fill="#fff" rx="14.5" ry="16.3" transform="rotate(-6.6 525.2 245)"/>
  <ellipse cx="525" cy="244.8" fill="none" stroke="#1d252e" stroke-linecap="round" stroke-width="4" rx="13.6" ry="15.3" transform="rotate(-6.6 525.4 245)"/>
  <path fill="#e5d3a5" d="M681.3 360c5.8-9.2 10.4-46.3 1.3-55s-26.3-12.5-76.6 14.7c8 18.7 8.4 40.9 4.3 65.2l10.5 4Z" data-name="Path-88"/>
  <path fill="none" stroke="#1d252e" stroke-linecap="round" stroke-width="4" d="M618.4 389s46.8-22.3 49-22.3 0 13.2 0 13.2m-154.5-21.6a57 57 0 0 1-2.2 26.3m101.8-40.8a79.8 79.8 0 0 1-.4 31.1"/>
  <path fill="#e5d3a5" d="M454.7 666.6h-4.2V507.3l-49-49H306L154.6 681v52.5l49 49h123v8.5l49 49h74.9v-56.5h53.2v-67.9Z"/>
  <path fill="#e5d3a5" d="M739 581.2a159.6 159.6 0 0 0-31-44.2l-40.7-40.4A138 138 0 0 0 565.5 452c-47.4 0-88.1 23.1-115 60.8a195.7 195.7 0 0 0-34 113.9 214.3 214.3 0 0 0 4.7 45q1.7 8 4 15.7a186.4 186.4 0 0 0 31.4 61.4q4 5.2 8.4 10l5.4 5.6 18.2 18.4.8.8L511 805a144.9 144.9 0 0 0 11.6 10.5c55.5 33.3 112.5 41.5 172.9 0a153.4 153.4 0 0 0 30.4-32.7A177.4 177.4 0 0 0 750 732V610.3a184.9 184.9 0 0 0-11-29Z"/>
  <path fill="#e5d3a5" d="M996.3 666.8h-4.2V507.5l-49-49h-95.5l-83.4 122.7-68 100v52.6l49 49h123v8.4l49 49h75v-56.5h53.2v-68Z"/>
  <ellipse cx="556.7" cy="622.1" fill="#fff" rx="70.8" ry="105.7"/>
  <path fill="none" stroke="#1d252e" stroke-linecap="round" stroke-width="4" d="M439.3 672.6a202.8 202.8 0 0 1-4.9-44.7c0-89.3 57-161.6 127.3-161.6S689 538.6 689 627.9s-57 161.7-127.3 161.7c-32.9 0-62.9-15.8-85.4-41.8"/>
  <path fill="#fff" d="m323.4 540.5-83.6 119h84.6l-1-119z"/>
  <path fill="none" stroke="#1d252e" stroke-linecap="round" stroke-width="4" d="m383.7 823.2-50.9-56.4m65.1 0 45.6 55.3"/>
  <path fill="#fff" d="m861 540.5-83.6 119H862l-1-119z"/>
  <path fill="none" stroke="#1d252e" stroke-linecap="round" stroke-width="4" d="M717.9 728.8h152.5v38h65.1v-38h48.4v-53.3m-62.7 147.7-50.8-56.4m65.1 0 45.5 55.3M409.3 683.4h-11.4V466.9h-86.4L168.2 680v48.8h164.6v38h65.1v-38H440m543.9-53.3h-48.4V466.9h-83.3L708.9 680m-397.3 86.8h-106m263.1 0h-50.2m443.5 0H741.5M398.1 466.9l48.5 48.4v9.1"/>
</svg>