<svg xmlns="http://www.w3.org/2000/svg" width="800" height="800" viewBox="0 0 444.2 444.2" fill="currentColor">
	<path
		d="m443.3 221-5.4-5.6a175.6 175.6 0 0 0-50.7-36.5l-1.2-.7a181.5 181.5 0 0 0 27.5-63l1-4.1-1.4-.5-7.5-2.2a175.6 175.6 0 0 0-62.2-6.3l-1.3.1a181.5 181.5 0 0 0-7.8-68.4l-1.1-4-1.4.3-7.6 1.8a175.7 175.7 0 0 0-57 25.6l-1.1.8a181.5 181.5 0 0 0-41-55.4l-3-2.9-1 1-5.7 5.3A175.2 175.2 0 0 0 178.9 57l-.7 1.3a181.6 181.6 0 0 0-63-27.6c-1.3-.2-4.1-1-4.1-1l-.5 1.4-2.2 7.5a175.5 175.5 0 0 0-6.3 62.2l.1 1.4a181.4 181.4 0 0 0-72.4 8.8l.3 1.5 1.8 7.6a175.4 175.4 0 0 0 25.6 57l.8 1a181.5 181.5 0 0 0-55.4 41l-2.9 3 1 1 5.3 5.8a175.6 175.6 0 0 0 52 37.1 181.4 181.4 0 0 0-27.6 63.1c-.2 1.3-1 4-1 4l1.4.5 7.5 2.3a175.5 175.5 0 0 0 62.2 6.3l1.4-.2a181.5 181.5 0 0 0 8.8 72.5l1.5-.3 7.6-1.8a175.5 175.5 0 0 0 57-25.6l1-.8a181.5 181.5 0 0 0 44 58.2l1-1 5.8-5.3a175.8 175.8 0 0 0 37.1-52 181.5 181.5 0 0 0 63.1 27.6l4 1 .5-1.4 2.3-7.5a175.6 175.6 0 0 0 6.3-62.2l-.2-1.3a181.5 181.5 0 0 0 68.5-7.8l4-1.1-.3-1.4-1.8-7.6a175.6 175.6 0 0 0-25.6-57l-.8-1.1a181.4 181.4 0 0 0 55.4-41l2.8-3-1-1zM376 253.3a108.3 108.3 0 0 0-43.8-31l6.4 6a153.9 153.9 0 0 1 25.4 31.9 170.4 170.4 0 0 1-34.4 14c-4 1.3-8 2-12.2 3 18 3.3 36.3 1 53.5-5l2.4 4.6a246.7 246.7 0 0 1 17 42.5 253.3 253.3 0 0 1-50.4 6.7 108.2 108.2 0 0 0-22.5-48.7l2.6 8.5c1.1 4 2 8.2 3 12.3 1.9 9.2 2.8 18.6 3 28a170.2 170.2 0 0 1-36.8-5c-4-1-8-2.4-12-3.6a106 106 0 0 0 48.7 22.5c0 1.7 0 3.4-.2 5a246.5 246.5 0 0 1-6.5 45.3c-16.3-4.8-32-11.3-47-19.3a108.1 108.1 0 0 0 4.9-53.5l-2 8.7c-1 4.1-2.3 8.1-3.6 12.1-3 9-6.8 17.6-11.3 25.8a170 170 0 0 1-29.4-22.7l-8.7-9.1a106 106 0 0 0 31 43.8 247 247 0 0 1-31 40.2 255.5 255.5 0 0 1-31-40.2 108.2 108.2 0 0 0 31-43.8l-6.1 6.4c-3 3-6 6-9.2 8.7-7 6.3-14.7 11.8-22.7 16.7a170.4 170.4 0 0 1-14-34.4c-1.2-4-2-8-3-12.2a106 106 0 0 0 5 53.5l-4.5 2.4a246.7 246.7 0 0 1-42.5 17c-4-16.6-6.2-33.5-6.8-50.5a108.2 108.2 0 0 0 48.8-22.4l-8.5 2.6-12.3 3a154 154 0 0 1-28 3 170.4 170.4 0 0 1 5-36.8c1-4 2.3-8 3.5-12a106 106 0 0 0-22.4 48.7c-1.7 0-3.4 0-5.1-.2a247.3 247.3 0 0 1-45.3-6.5c4.9-16.3 11.4-32 19.3-47a108.1 108.1 0 0 0 53.5 4.9l-8.7-2a153.8 153.8 0 0 1-38-15 170.4 170.4 0 0 1 22.9-29.3c2.9-3 6-5.8 9-8.7a106 106 0 0 0-43.7 31 246.7 246.7 0 0 1-40.2-31c12.2-11.6 25.8-22 40.2-31a108.1 108.1 0 0 0 43.8 31l-6.5-6.1A153.7 153.7 0 0 1 80.2 184a170.2 170.2 0 0 1 34.4-14c4-1.2 8.1-2 12.2-3a106 106 0 0 0-53.5 5l-2.3-4.5A246.9 246.9 0 0 1 54 125c16.5-4 33.5-6.2 50.4-6.8a108.2 108.2 0 0 0 22.5 48.8l-2.6-8.5c-1.2-4.1-2-8.2-3-12.3-2-9.2-2.8-18.6-3-28a170.4 170.4 0 0 1 36.7 5c4.1 1 8 2.3 12 3.5a106 106 0 0 0-48.7-22.4l.2-5.1a247.4 247.4 0 0 1 6.6-45.3 267 267 0 0 1 47 19.3 108.1 108.1 0 0 0-5 53.5l2-8.7a153.6 153.6 0 0 1 15-38 170.6 170.6 0 0 1 29.3 22.9c3 2.9 5.8 6 8.7 9a106 106 0 0 0-31-43.7l2.7-4.4A246.6 246.6 0 0 1 222.1 28c11.7 12.3 22 25.9 31 40.3a108.2 108.2 0 0 0-31 43.8c2.1-2.2 4-4.4 6.2-6.5a153.8 153.8 0 0 1 31.9-25.4 170.4 170.4 0 0 1 14 34.4c1.2 4 2 8.1 3 12.2a107 107 0 0 0-5-53.5l4.5-2.3a247 247 0 0 1 42.5-17c4 16.5 6.2 33.5 6.7 50.4a108.1 108.1 0 0 0-48.7 22.5l8.5-2.6c4-1.2 8.2-2 12.3-3 9.2-2 18.6-2.8 28-3a170.3 170.3 0 0 1-5 36.7c-1 4.1-2.4 8-3.6 12a106 106 0 0 0 22.5-48.7l5 .2a246.7 246.7 0 0 1 45.3 6.6c-4.8 16.2-11.3 32-19.3 47a108.1 108.1 0 0 0-53.5-5l8.7 2a153.7 153.7 0 0 1 38 15 170.4 170.4 0 0 1-22.8 29.3l-9.1 8.7a106 106 0 0 0 43.8-31l4.3 2.7a247.2 247.2 0 0 1 36 28.3 255.8 255.8 0 0 1-40.3 31z" />
	<path
		d="M266.9 217.3a45 45 0 0 0-3.6-13.3c9.9-5.4 19.5-11.1 28.8-17.4 8.8-5.9 17.5-12.2 25.3-19.5a214.5 214.5 0 0 0-36.4 15.7 374 374 0 0 0-22.6 12.8 45 45 0 0 0-9.7-9.8c5.9-9.5 11.3-19.3 16.3-29.4a210 210 0 0 0 12.1-29.5c-9 9.6-16.6 20.6-23.7 31.7a334 334 0 0 0-13 22.4 43.6 43.6 0 0 0-13.4-3.6c.3-11.2.1-22.4-.6-33.6-.7-10.6-1.9-21.3-4.3-31.7-3 12.8-4 26.2-4.6 39.3-.4 8.7-.4 17.3-.2 26a45 45 0 0 0-13.3 3.5 352.8 352.8 0 0 0-17.4-28.7 192.3 192.3 0 0 0-19.5-25.4c3.9 12.6 9.6 24.8 15.7 36.4 4 7.7 8.2 15.2 12.8 22.6a45 45 0 0 0-9.8 9.7 353.5 353.5 0 0 0-29.4-16.2c-9.5-4.7-19.4-9.1-29.5-12.2 9.6 9 20.6 16.6 31.7 23.7a385 385 0 0 0 22.4 13.1 43.6 43.6 0 0 0-3.6 13.4 314 314 0 0 0-33.6.6c-10.6.7-21.3 1.8-31.7 4.2 12.8 3 26.2 4.1 39.3 4.6 8.7.4 17.3.5 26 .2.5 4.7 1.7 9.2 3.5 13.4a353.1 353.1 0 0 0-28.7 17.3c-8.9 6-17.6 12.2-25.4 19.5a209 209 0 0 0 36.4-15.6c7.7-4 15.2-8.3 22.6-12.8 2.7 3.7 6 7 9.7 9.7a352.8 352.8 0 0 0-16.2 29.4c-4.7 9.6-9.1 19.4-12.2 29.6a212 212 0 0 0 23.7-31.8c4.6-7.3 9-14.7 13.1-22.3a50 50 0 0 0 13.4 3.6c-.4 11.1-.2 22.4.6 33.5.7 10.7 1.8 21.4 4.2 31.7a214 214 0 0 0 4.7-39.3c.3-8.6.4-17.3.2-26 4.6-.4 9.1-1.7 13.3-3.5 5.3 9.8 11 19.5 17.3 28.8 6 8.8 12.2 17.5 19.5 25.3a214.4 214.4 0 0 0-15.6-36.4c-4-7.7-8.3-15.2-12.8-22.6 3.7-2.7 7-6 9.7-9.7 9.6 5.9 19.4 11.3 29.4 16.3 9.6 4.6 19.4 9 29.6 12.1a212 212 0 0 0-31.8-23.7c-7.3-4.6-14.7-9-22.3-13.1 1.8-4.1 3-8.6 3.6-13.3 11.2.3 22.4.1 33.5-.6 10.7-.7 21.4-1.9 31.7-4.3-12.8-3-26.2-4-39.3-4.6a375 375 0 0 0-26-.2z" />
</svg>