<?xml version="1.0" encoding="UTF-8"?>
<svg id="Layer_2" data-name="Layer 2" xmlns="http://www.w3.org/2000/svg" viewBox="0 0 1497 1497">
  <g id="miqate-sqauare">
    <rect width="1497" height="1497" fill="none"/>
    <g>
      <path d="M47,811.44l271.26-325.82,325.44,271.26-271.26,325.44L47,811.44Z" fill="#1d1d1b"/>
      <g>
        <path d="M482.32,693.87l-13.45-7.68c-11.53-7.3-24.97-15.37-34.58-20.36-.91-.54-2.09-.24-2.63.67-.02.03-.04.07-.06.1l-24.97,44.57-13.83-8.45c-12.2-7.31-24.63-14.23-37.27-20.75l-1.15,1.15-21.52,46.49c-.38,1.15,0,1.92.77,2.69,12.76,6.66,25.32,13.7,37.65,21.13l8.84,5.38h1.15c.77,0,1.15,0,1.54-.77l24.59-43.8c9.22,4.61,23.05,13.06,34.96,20.36l15.37,9.22,1.15.38h.38c.38,0,1.15-.38,1.15-1.15l22.28-46.87c.77-.77,0-1.92-.38-2.31" fill="#cb9903"/>
        <path d="M334.01,899.81c48.03,0,101.82-7.68,161.37-23.82,46.77-12.48,92.71-27.87,137.55-46.11l78.77-33.04c19.81-8.94,40.98-14.53,62.63-16.52,24.97,0,37.65,11.53,37.65,34.58,0,15.37-7.68,34.58-22.67,57.25-3.84,5.76-14.98,19.98-33.43,43.42l-31.51,35.35c-11.84,12.86-22.16,27.04-30.74,42.26-5.11,11.56-11.69,22.41-19.6,32.27-.38,0-.77-.38-.77-1.15,0-3.46,2.69-13.83,7.68-30.74,12.13-33.06,31.12-63.17,55.71-88.37,26.9-29.59,39.96-47.64,39.96-54.56,0-3.84-3.84-6.15-11.91-6.53-12.68,0-36.5,6.92-71.47,19.98-47.03,18.38-94.43,35.8-142.16,52.25-78.62,27.92-161,43.85-244.36,47.26-68.01,0-117.19-18.06-147.54-53.79-21.82-26.7-33.16-60.44-31.89-94.9,0-40.34,9.61-78,29.2-112.96,6.15-11.53,10.76-16.91,12.68-16.91.77,0,1.54,1.15,1.54,2.31,0,3.84-1.92,10.37-4.99,19.21l-14.22,38.04c-4.99,16.14-7.68,33.04-7.68,51.49,0,23.05,11.53,44.19,34.58,62.63,33.04,27.28,85.3,41.11,155.99,41.11" fill="#cb9903"/>
      </g>
      <g>
        <path d="M1443.64,788.77c-8.07-24.59-19.98-38.42-34.58-40.34h-1.92c-17.29,0-37.27,27.28-49.56,55.33-7.68,19.21-13.83,46.11-15.37,69.93-.38,9.99-.77,21.9-.38,34.58-23.05,5.38-55.71.77-73.77-11.53l-5.38-6.53c-6.35-5.86-11.68-12.74-15.75-20.36-10.54-23.51-16.53-48.8-17.67-74.54-4.23-35.73-8.84-75.69-29.59-115.65-.38-.77-1.15-1.15-1.92-1.15s-1.54.38-1.54,1.15l-13.45,49.95v3.07c14.6,43.8,24.59,95.29,28.05,139.86l-4.61,6.53-.38.38c-3.84,4.99-13.83,14.22-16.14,16.14-21.54,14.87-49.39,17.07-73,5.76h-.38c-7.45-2.84-15.18-4.9-23.05-6.15l-1.15-.38c20.4-23.83,31.34-54.32,30.74-85.68,0-29.59-11.91-61.48-27.28-73.77-4.99-4.54-11.79-6.52-18.44-5.38-27.66,5.76-73.39,63.01-71.47,111.04.38,25.36,3.84,42.26,10.37,54.94-29.97,11.53-70.7,11.91-96.82-5.38l-1.15-.77-1.92-1.54c-13.45-10.37-27.28-29.97-31.89-97.59-3.75-122.05-13.24-243.85-28.43-365.01-3.07-21.52-7.68-46.11-12.3-62.24,0-.77-.77-1.15-1.54-1.54-.77,0-1.54.77-1.92,1.15l-19.6,48.03v1.15c3.84,15.37,8.84,39.57,11.53,61.48,10.37,79.53,19.6,205.56,27.66,364.24,4.99,76.84,34.58,96.82,48.41,106.43h.77c14.6,9.99,33.04,14.6,52.25,14.6s38.42-3.84,54.18-11.53c10.82-5.02,21.34-10.66,31.51-16.91,9.99,7.3,21.9,13.45,36.12,19.21,15.48,9.04,33.18,13.56,51.1,13.06h4.99c15.67.33,31.02-4.38,43.8-13.45,2.69-1.92,13.06-10.76,16.91-16.52l1.15-1.92c3.84-4.99,9.22-13.45,12.3-24.21l1.15-4.23.38-3.07,4.99-23.05c3.46,17.29,7.68,33.04,14.98,46.11,3.84,7.68,10.37,15.75,16.52,21.52,4.23,3.84,9.22,6.92,14.6,9.22,22.11,12.81,48.55,15.87,73,8.45l8.45-2.69.38,2.31,2.31,6.92c.77,3.84,1.92,6.15,3.84,6.15,2.31-.38,3.07-1.92,2.69-19.21,22.28-8.45,40.73-19.21,55.33-31.12,18.45-16.24,31.01-38.12,35.73-62.24,5.02-24.26,3.69-49.4-3.84-73h0ZM1076.33,861.01c-6.76,4.84-13.68,9.46-20.75,13.83-4.26-2.96-8.14-6.44-11.53-10.37-11.91-13.06-19.21-21.52-20.36-32.27,0-7.3,6.15-16.91,17.29-27.66,12.3-11.53,26.9-20.36,31.89-20.36,6.92.38,13.45,14.6,17.67,23.82l1.54,3.07c3.84,8.84,7.68,24.21,7.68,28.05-1.15,5.76-16.91,17.29-23.05,21.9h-.38ZM1418.29,870.23c-18.27,14.82-39.11,26.15-61.48,33.43,1.25-23.35,5.91-46.39,13.83-68.39,9.61-20.75,19.98-32.66,27.28-32.66h1.15c12.3,5.38,19.6,25.36,23.05,33.81,1.92,4.23,3.84,12.68,4.99,17.67l.38,3.07c0,2.31-3.07,7.68-8.84,13.06h-.38ZM1282.66,996.64c-11.53-6.92-25.36-14.98-34.96-19.98-.85-.32-1.82,0-2.31.77l-24.97,44.57-13.83-8.45c-12.2-7.31-24.63-14.23-37.27-20.75l-1.15,1.15-21.9,46.49c0,1.15,0,1.92,1.15,2.69,12.76,6.66,25.32,13.7,37.65,21.13l8.84,5.38h1.54s.77,0,1.15-.77l24.21-43.8c9.61,4.61,23.05,13.06,35.35,20.36l15.37,9.22,1.15.38c.77,0,1.15-.38,1.54-1.15l22.28-46.87c.38-.77,0-1.54-.77-2.31l-13.06-7.68v-.38Z" fill="#1d1d1b"/>
        <path d="M999.87,659.29l8.84,5.38h1.54l1.15-.77,24.59-43.8c9.22,4.61,23.05,13.06,34.96,20.36l15.37,9.22h1.54c.77,0,1.15,0,1.15-.77l22.67-46.87c0-.77,0-1.92-.77-2.31-16.14-9.34-32.28-18.69-48.41-28.05-.85-.32-1.82,0-2.31.77l-24.97,43.8-13.83-8.07c-12.2-7.31-24.63-14.23-37.27-20.75l-1.15.77-21.52,47.26c-.38.77,0,1.92.77,2.31,12.77,6.78,25.33,13.96,37.65,21.52Z" fill="#1d1d1b"/>
      </g>
      <path d="M1030.99,442.59c6.98,3.94,12.8,9.64,16.91,16.52,2.31,3.07,2.69,6.92,1.15,10.76-2.69,4.99-3.84,10.76-7.3,15.37-3.07,0-3.46-2.69-4.61-3.84-2.5-4.49-5.9-8.41-9.99-11.53-6.53-3.84-11.53-2.69-15.37,3.84-3.07,6.15-4.23,13.06-5.38,19.98-3.07,19.98-4.61,39.96-9.22,59.17-1.54,5.38-1.92,11.53-6.15,16.14-3.84-1.92-4.23-5.76-5.38-8.84-4.72-14.69-10.36-29.06-16.91-43.03-3.07-6.15-6.15-11.53-10.37-18.06-3.07,2.69-6.15,3.84-10.37,1.15-6.12-4.52-12.54-8.63-19.21-12.3-4.61-2.69-5.76-5.76-4.99-11.14.77-4.61,1.15-9.22,2.69-13.83,3.84-9.99,9.99-12.68,19.21-7.68,7.68,3.84,13.45,9.61,18.44,16.14,10.76,15.37,18.44,31.89,23.82,49.56,1.15,3.07,1.15,6.92,4.61,9.99l6.15-42.26c2.69-15.37,6.15-30.74,17.67-42.26,4.61-2.31,9.22-4.99,14.6-3.84M717.08,500.99c6.88,4.08,12.67,9.74,16.91,16.52,2.31,3.84,2.69,7.3,1.15,10.76-2.69,5.38-3.84,10.76-7.3,15.37-3.07.38-3.46-2.31-4.61-3.84-2.5-4.49-5.9-8.41-9.99-11.53-6.53-3.84-11.53-2.31-15.37,4.23-3.07,6.15-4.23,13.06-5.38,19.98-3.07,19.6-4.61,39.57-9.22,59.17-1.54,5.38-1.92,11.53-6.15,16.14-3.84-1.92-4.23-5.76-5.38-8.84-4.7-14.82-10.35-29.32-16.91-43.42-3.07-5.76-6.15-11.53-10.37-17.67-3.07,2.69-6.15,3.84-10.37.77-6.13-4.39-12.55-8.37-19.21-11.91-4.61-2.69-5.76-6.15-4.99-11.14.77-4.61,1.15-9.22,2.69-13.83,3.84-9.99,9.99-12.68,19.21-7.68,7.68,3.84,13.83,9.22,18.44,16.14,10.76,15.37,18.44,31.89,23.82,49.56,1.15,3.07,1.15,6.92,4.61,9.99,2.31-14.6,3.84-28.43,6.53-42.26,2.31-15.37,6.15-30.74,17.29-42.26,4.61-2.31,9.22-4.99,14.98-3.84M1207.35,1171.07c1.34-13.29,9.49-24.93,21.52-30.74,54.92-29.01,110.79-56.17,167.52-81.45,4.61-1.92,8.84-4.99,15.37-4.99-1.54,7.68-3.84,14.6-6.92,21.13-1.54,3.46-5.76,4.23-9.22,5.76-27.64,12.03-54.93,24.84-81.84,38.42-34.58,16.91-69.16,33.43-102.59,51.87-.77.77-1.54,1.15-3.84,0M900.74,445.28c1.92-14.22,7.68-24.21,21.52-30.74,54.91-29.14,110.78-56.43,167.52-81.84,4.23-1.92,8.84-4.61,14.98-4.61-1.15,7.68-3.84,14.22-6.53,20.75-1.92,3.84-6.15,4.61-9.61,6.15-27.66,11.53-54.94,24.97-81.84,38.42-34.58,16.52-69.16,33.04-102.2,51.87-1.15.38-1.92,1.15-3.84,0" fill="#1d1d1b"/>
      <path d="M1392.93,1003.17c-1.78-2.71-4.53-4.63-7.68-5.38-5.76-1.54-9.61,0-12.68,4.99-1.92,2.69-2.69,5.76-6.92,8.45.77-13.06,4.23-23.05,12.68-31.51,3.46-3.46,7.68-3.84,12.3-1.92,5.76,2.31,10.37,5.76,15.37,9.99,9.61,8.84,11.53,16.52,5.76,28.43-1.92,3.84-4.99,3.84-8.07,3.84-12.31,1.47-24.19,5.39-34.96,11.53-5.76,3.07-5.76,3.46-3.07,9.61,16.16,34.01,27.05,70.29,32.27,107.58,0,3.84,3.07,10.37-2.31,11.53-3.84.38-3.84-6.53-4.61-10.37-5.66-27.54-14.42-54.35-26.13-79.92l-7.3-18.83c-4.99-15.37.77-30.74,14.6-39.57,6.15-3.84,13.06-5.38,20.75-8.45M438.14,464.87c2.69,8.07-3.84,13.06-4.61,19.98,6.53,3.84,13.83,6.92,19.98,11.91,6.9,5.39,10.53,13.96,9.61,22.67-1.15,19.98-9.99,31.12-28.05,35.73-15.37,3.84-25.36-3.84-26.9-19.21-.77-4.99,0-9.61.77-14.22,4.61-18.44,13.45-34.58,23.05-50.72,1.25-2.63,3.44-4.69,6.15-5.76M418.93,521.74c-.77,8.84,2.69,13.06,10.76,14.22,8.45,1.54,15.37-1.92,21.52-7.3,2.69-1.92,2.69-3.84.77-6.15-3.84-4.61-7.68-8.45-13.06-11.14-4.61-2.31-9.99-7.68-14.22-5.38-4.99,3.07-4.99,10.37-6.15,15.37M166.88,522.89c-.38,7.68-3.46,13.06-5.76,18.44-4.99,11.91-10.76,23.44-12.68,36.89-.38,4.61-.77,9.22-.38,14.22,0,3.46,1.15,6.53,3.07,9.61,5.38,8.07,13.06,7.68,17.67-.77l4.61-10.37c.38-1.15,1.54-1.92,3.07-1.54,1.54,0,1.54,1.92,1.54,3.07-1.92,13.45-5.38,26.9-15.37,36.89-8.84,8.45-18.83,6.53-24.21-3.84-3.84-7.68-4.61-16.14-3.84-24.21,2.69-27.66,14.22-52.25,28.43-75.69.38-.77,1.54-1.15,3.84-2.69" fill="#1d1d1b"/>
      <path d="M685.96,675.43c0,8.45-1.54,15.37-5.38,22.28-1.84,4.25-4.75,7.96-8.45,10.76-5.76,3.84-11.53,2.69-14.6-3.46-2.31-3.46-3.84-7.3-3.84-11.53-.77-7.3,0-14.22,1.92-21.52,3.84-13.83,9.61-26.9,16.52-39.96,1.15-1.92,1.92-4.23,4.99-5.76,1.54,3.46-.38,6.15-1.54,8.84-3.46,7.68-6.92,15.75-9.61,23.82-2.46,7.69-2.99,15.88-1.54,23.82,1.15,3.84,3.46,7.3,7.68,7.68,4.61,0,6.53-3.46,8.07-6.92,1.15-2.69,1.15-6.53,5.76-8.07" fill="#211f1b"/>
    </g>
  </g>
</svg>