<?xml version="1.0" encoding="UTF-8"?>
<svg id="Layer_2" data-name="Layer 2" xmlns="http://www.w3.org/2000/svg" viewBox="0 0 177.57 146">
  <g id="Calque_1" data-name="Calque 1">
    <g id="cib">
      <path d="M177.57,40.53v-4C177.57,17.74,166.57.12,140.59.12h-39.55l-32.03,145.88h61.1c20.86-.06,37.76-16.96,37.82-37.82v-4.43c-.02-11.97-5.7-23.22-15.31-30.34,14.75-4.12,24.95-17.56,24.96-32.88ZM143.86,105.44c-1.77,21.33-26,24.14-47.63,21.7l9.56-43.41h14.3c7.85.01,25.53.75,23.79,21.71h-.01ZM157.01,41.73c-1.77,21.33-26,24.14-47.63,21.7l9.56-43.43h14.3c7.85,0,25.48.7,23.78,21.71v.03ZM62.7,20.02c-1.15-.08-2.32-.12-3.51-.12-21.16,0-37.56,10.27-37.56,25.74,0,13.57,13.21,25.12,30.73,27.68l-3.15,17.65C14.82,88.46,0,67.11,0,45.58,0,21.38,24.38.08,57.47.08c2.26,0,6.96-.18,9.1,0l-3.87,19.94Z" fill="#1f4394"/>
      <path d="M62.38,19.96L66.63.09h22.15l-4.25,19.9s-22.15-.04-22.15-.04ZM73.34,73.33l-16.06,72.67h-22.15l16.17-72.67s22.04,0,22.04,0Z" fill="#feb836"/>
    </g>
  </g>
</svg>