<svg xmlns="http://www.w3.org/2000/svg" xml:space="preserve" viewBox="0 0 1718.3 2050">
  <path fill="#FECC0B" d="M1300 1132.5c-201.3 131.2-375.4 211.4-522.7 251.9l-.4-111.6-213.1 64.8-.4 79.8C106.3 1423 44.5 933 356.7 608.3c-209.1 484.1 503.5 405 809.9 450.1 80.8 11.9 133.4 32.4 133.4 74.1z"/>
  <path fill="#22297C" d="M1502.5 1446v59l-132.7 40.4.1-59.1zm-695 190.9v64.6l-30.6 9.3-105 32v-64.6l105-32zM650 1691.3v64.6l-86.2 26.3-49.4 15v-64.6l49.4-15z"/>
  <path fill="#22297C" d="M1562.5 1174.3v119.5c0 22.5-20 50.8-65.5 67.2l-134.5 40.9-50 15.2V1597c-1.3 35-28.8 52.5-51.2 61.3l-153.2 46.6-68.7 21-152.8 46.4c-31 6.8-43-8.4-44.7-22.8v-123l197.5-60v72.2c0 21.6 68.1 16.4 68.7-13.6v-312.4l201.1-61.2v79.2c12.5 23.6 60.4 17 60.8-15.2V1233l132.5-40.3 60-18.3zm-247.5-61c300-230 490-666.7-1286.7-830 1553.4-700 2093.4 270 1286.7 830z"/>
  <path fill="#22297C" d="M1039.4 1333.5v137.4c0 14.4-13.5 34.4-38.8 41.1l-158.7 48.3-34.4 10.5-30.6 9.3-105 31.9-21.9 6.7-86.2 26.2-49.4 15.1-6.9 2.1-141.1 42.9c-32.3 5.3-63.9-5.9-68.9-30v-115.7l210-63.9v89.6c3.5 14.2 53.1 10.4 55-12.5l.9-155.1.4-79.8 213.1-64.8.4 111.6.5 112.5c1 18.7 52.8 7.2 52.6-15.3l-.4-84.4 11.9-3.6 197.5-60.1zm-820.1 660.8 33.2-97h16l33.2 97H288l-8.9-27h-37.6l-8.9 27h-13.2zm56-38-15.1-45.8-15.1 45.7h30.3zm123.9 38h-57v-97h13v85.6h44v11.4zm72.6 1.9c-7 0-13.4-1-19.1-3.1a38.7 38.7 0 0 1-24.4-25.5 66.6 66.6 0 0 1-3.3-21.9 62 62 0 0 1 3.3-21 45 45 0 0 1 9.6-15.9c4-4.2 9-7.5 14.8-9.8a52 52 0 0 1 19.2-3.4 62 62 0 0 1 25.6 5.3l6.5 3v15.6h-1a43.9 43.9 0 0 0-12.4-8.2 45.8 45.8 0 0 0-20.3-4.6c-9.5 0-17.1 3.5-23 10.6s-8.7 16.4-8.7 28c0 6.6.8 12.3 2.3 17.1 1.5 4.9 3.8 9 6.7 12.4 2.8 3.4 6.2 5.9 10.2 7.7a33 33 0 0 0 13.4 2.6 67 67 0 0 0 20.3-3.1v-25.1h-22.7v-11.3h35.6v42.3l-6.7 2.8a84.4 84.4 0 0 1-16.6 4.8 53 53 0 0 1-9.3.7zm96.3-87.4v26.6h45.1v11.4h-45.1v36.1h48.4v11.4H555v-97h19.2l9.9-21.1 8.1 5.1-8.3 16h32.6v11.5zm153.1 85.5h-17l-31.1-38.5h-15v38.5h-13v-97h25.3c5.7 0 10.4.3 14.2 1a28.1 28.1 0 0 1 19 12.6c2 3.4 3 7.7 3 12.8a28.5 28.5 0 0 1-20.4 28.4l35 42.2zm-28.3-69.7c0-2.8-.5-5.3-1.5-7.5s-2.6-4-4.7-5.4c-1.8-1.2-4-2-6.4-2.6-2.5-.4-5.6-.7-9.2-.7h-13v36.6h11.5a47 47 0 0 0 10.1-1c3-.6 5.6-2 7.7-4 1.9-1.8 3.3-4 4.2-6.5a26 26 0 0 0 1.3-8.9zm69 69.7h-13v-97H762v87.1l-.1 10zm45.9 0v-97h61.4v11.5h-48.4v26.6H866v11.4h-45v36h48.3v11.5h-61.4zm238.8-73.1c0 4.8-.9 9.5-2.7 13.8a29 29 0 0 1-8.1 11 55 55 0 0 1-15.6 9 63.7 63.7 0 0 1-22.5 3.4h-16.6v34h-31.8v-104h49.1c7.3 0 13.6.6 18.9 1.6s10 2.9 14.4 5.3a28.3 28.3 0 0 1 15 25.9zm-32.6.6c0-2.9-.8-5.4-2.5-7.5a13.1 13.1 0 0 0-6.1-4.4c-3-1-5.9-1.7-8.6-1.9l-11.2-.2H981v31.1h10.7c2.7 0 5-.2 7-.5 1.7-.3 3.5-.7 5.3-1.4a14.9 14.9 0 0 0 8.8-7.6 20 20 0 0 0 1.1-7.6zm174.8 18.6a50 50 0 0 1-16.4 39.6c-11 9.7-26 14.5-45 14.5s-34-4.9-44.9-14.6a50.4 50.4 0 0 1-16.3-39.5c0-16.7 5.5-29.9 16.3-39.6 11-9.7 25.9-14.5 45-14.5 19 0 34 4.8 44.9 14.4a50.3 50.3 0 0 1 16.4 39.7zm-32.8 0a49 49 0 0 0-2.3-15.9 31.9 31.9 0 0 0-6.3-10.7 24 24 0 0 0-9.2-6 31.3 31.3 0 0 0-21.3-.2 25.3 25.3 0 0 0-9.1 6 29.6 29.6 0 0 0-6.4 10.8 47 47 0 0 0-2.4 16 47 47 0 0 0 2.3 15.9c1.5 4.2 3.6 7.7 6.3 10.6 2.7 2.9 5.8 4.9 9.3 6.1a31.6 31.6 0 0 0 21.5-.1c3.5-1.3 6.6-3.4 9.1-6.2a32 32 0 0 0 6.3-10.5c1.5-4 2.2-9.3 2.2-15.9zm100.6 53.8a125.3 125.3 0 0 1-46-8v-24.7h3a76.6 76.6 0 0 0 50.4 13.3c3-.4 5.3-.9 7.1-1.6a16 16 0 0 0 5.7-3.3 7.3 7.3 0 0 0 2.2-5.6c0-2.6-1.2-4.7-3.7-6.4a26.3 26.3 0 0 0-9-3.5c-4.2-1-8.8-1.8-13.7-2.7-5-.8-9.5-1.8-13.7-3a43.9 43.9 0 0 1-21-11.5 26 26 0 0 1-6.5-18c0-9.7 5-17.6 15-23.6s22.6-9 37.6-9a135.4 135.4 0 0 1 42.5 6.9v23.7h-2.8a66.9 66.9 0 0 0-38-11.8c-2.9 0-5.3.2-7.6.5s-4.5 1-7 1.9a14 14 0 0 0-5 3.3 6.9 6.9 0 0 0-2.2 5c0 2.6 1.1 4.7 3.4 6.3 2.3 1.5 6.7 3 13.3 4.2l12.3 2.3c4 .7 8.1 1.8 12.6 3a44.7 44.7 0 0 1 19.6 10.6 24 24 0 0 1 6.4 17.4c0 10.3-5 18.6-14.8 24.9a74 74 0 0 1-40 9.4zm105.4-1.9v-84h-37.4v-19.9h106.5v19.8h-37.4v84.1H1362zm92.2 0v-103.9h85.5v19.8h-54v18.2h49.7v19.8h-49.6v26.3h53.9v19.8h-85.5z"/>
</svg>