<svg xmlns="http://www.w3.org/2000/svg" data-name="Layer 2" viewBox="0 0 177.6 146">
  <g data-name="Calque 1">
    <path fill="#1f4394" d="M177.6 40.5v-4c0-18.8-11-36.4-37-36.4H101L69 146h61.1a38 38 0 0 0 37.8-37.8v-4.4c0-12-5.7-23.3-15.3-30.4a34.2 34.2 0 0 0 25-32.9Zm-33.7 65c-1.8 21.3-26 24-47.7 21.6l9.6-43.4H120c7.8 0 25.5.8 23.8 21.7ZM157 41.6c-1.8 21.4-26 24.2-47.6 21.7l9.5-43.4h14.3c7.9 0 25.5.7 23.8 21.7ZM62.7 20l-3.5-.1c-21.2 0-37.6 10.3-37.6 25.7 0 13.6 13.2 25.2 30.8 27.7L49.2 91C14.8 88.5 0 67 0 45.6 0 21.4 24.4 0 57.5 0c2.2 0 7-.2 9 0l-3.8 20Z"/>
    <path fill="#feb836" d="m62.4 20 4.2-20h22.2l-4.3 20H62.4Zm11 53.3L57.2 146H35l16.2-72.7h22Z"/>
  </g>
</svg>