<svg xmlns="http://www.w3.org/2000/svg" xml:space="preserve" viewBox="0 0 999.2 776">
  <path d="M181.1 774.3v-51.5c0-19.7-12-32.6-32.6-32.6a33.8 33.8 0 0 0-29.2 14.6 30.1 30.1 0 0 0-27.5-14.6c-8.6 0-17.2 2.6-24 12v-10.3h-18v82.4h18v-45.5c0-14.6 7.7-21.5 19.7-21.5s18 7.7 18 21.5v45.5h18v-45.5c0-14.6 8.6-21.5 19.7-21.5 12 0 18 7.7 18 21.5v45.5h19.9zm267-82.4h-29.2V667h-18v24.9h-16.3v16.3h16.3V746c0 18.9 7.7 30 28.3 30 7.7 0 16.3-2.6 22.3-6l-5.2-15.5a28.8 28.8 0 0 1-15.5 4.3c-8.6 0-12-5.2-12-13.7v-36.9H448v-16.3zm152.8-1.8a24.4 24.4 0 0 0-21.5 12v-10.3h-18v82.4h18v-46.4c0-13.7 6-21.5 17.2-21.5 3.4 0 7.7.9 11.2 1.7l5.2-17.2c-3.6-.7-8.7-.7-12.1-.7zM370 698.7a59 59 0 0 0-33.5-8.6c-20.6 0-34.3 10.3-34.3 26.6 0 13.7 10.3 21.5 28.3 24l8.6.9c9.4 1.7 14.6 4.3 14.6 8.6 0 6-6.9 10.3-18.9 10.3-12 0-21.5-4.3-27.5-8.6l-8.6 13.7a60.3 60.3 0 0 0 35.2 10.3c24 0 37.8-11.2 37.8-26.6 0-14.6-11.2-22.3-28.3-24.9l-8.6-.9c-7.7-.9-13.7-2.6-13.7-7.7 0-6 6-9.4 15.5-9.4a62 62 0 0 1 25.8 6.9l7.6-14.6zm478.9-8.6a24.4 24.4 0 0 0-21.5 12v-10.3h-18v82.4h18v-46.4c0-13.7 6-21.5 17.2-21.5 3.4 0 7.7.9 11.2 1.7l5.2-17c-3.5-.9-8.6-.9-12.1-.9zm-230 43c0 24.9 17.2 42.9 43.8 42.9 12 0 20.6-2.6 29.2-9.4l-8.6-14.6a34.4 34.4 0 0 1-21.5 7.7c-14.6 0-24.9-10.3-24.9-26.6a25.3 25.3 0 0 1 24.9-26.6c7.7 0 14.6 2.6 21.5 7.7l8.6-14.6a42.6 42.6 0 0 0-29.2-9.4c-26.6-.1-43.8 18-43.8 42.9zm166.5 0v-41.2h-18v10.3c-6-7.7-14.6-12-25.8-12-23.2 0-41.2 18-41.2 42.9s18 42.9 41.2 42.9c12 0 20.6-4.3 25.8-12v10.3h18v-41.2zm-66.1 0c0-14.6 9.4-26.6 24.9-26.6 14.6 0 24.9 11.2 24.9 26.6 0 14.6-10.3 26.6-24.9 26.6a25.4 25.4 0 0 1-24.9-26.6zm-215.4-43c-24 0-41.2 17.2-41.2 42.9 0 25.8 17.2 42.9 42.1 42.9 12 0 24-3.4 33.5-11.2l-8.6-12.9a40.9 40.9 0 0 1-24 8.6c-11.2 0-22.3-5.2-24.9-19.7h60.9v-6.9c.8-26.5-14.7-43.7-37.8-43.7zm0 15.5c11.2 0 18.9 6.9 20.6 19.7h-42.9c1.7-11.1 9.4-19.7 22.3-19.7zm447.2 27.5v-73.8h-18v42.9c-6-7.7-14.6-12-25.8-12-23.2 0-41.2 18-41.2 42.9s18 42.9 41.2 42.9c12 0 20.6-4.3 25.8-12v10.3h18v-41.2zm-66.1 0c0-14.6 9.4-26.6 24.9-26.6 14.6 0 24.9 11.2 24.9 26.6 0 14.6-10.3 26.6-24.9 26.6-15.5-.9-24.9-12.1-24.9-26.6zm-602.6 0v-41.2h-18v10.3c-6-7.7-14.6-12-25.8-12-23.2 0-41.2 18-41.2 42.9s18 42.9 41.2 42.9c12 0 20.6-4.3 25.8-12v10.3h18v-41.2zm-66.9 0c0-14.6 9.4-26.6 24.9-26.6 14.6 0 24.9 11.2 24.9 26.6 0 14.6-10.3 26.6-24.9 26.6-15.5-.9-24.9-12.1-24.9-26.6z"/>
  <path fill="#FF5A00" d="M364 66.1h270.4v485.8H364z"/>
  <path fill="#EB001B" d="M382 309c0-98.7 46.4-186.3 117.6-242.9A308.8 308.8 0 0 0 0 309a308.8 308.8 0 0 0 499.6 242.9A308.4 308.4 0 0 1 382 309z"/>
  <path fill="#F79E1B" d="M999.2 309a308.8 308.8 0 0 1-499.6 242.9 309.9 309.9 0 0 0 0-485.8A306.8 306.8 0 0 1 690.1 0a309.4 309.4 0 0 1 309.1 309z"/>
</svg>