<svg xmlns="http://www.w3.org/2000/svg" xml:space="preserve" viewBox="0 0 1000 323.7">
  <path fill="#00579f" d="M433.2 318.9h-80.7L403 5.7h81.1zM727 13.3C711 7 685.7 0 654.4 0c-80 0-136.4 42.7-136.7 103.7-.7 45 40.3 70 71 85 31.3 15.3 42 25.3 42 39-.3 21-25.3 30.6-48.7 30.6-32.3 0-49.6-5-76-16.6l-10.7-5L484 307c19 8.6 54 16.3 90.4 16.7 85 0 140.3-42 141-107 .3-35.7-21.4-63-68-85.4-28.4-14.3-45.7-24-45.7-38.6.3-13.4 14.6-27 46.6-27 26.4-.7 45.7 5.6 60.4 12L716 81l11-67.7zM834.7 208l32.3-87.7c-.3.7 6.7-18.3 10.7-30l5.7 27L902 208h-67.3zm100-202.3H872c-19.3 0-34 5.6-42.3 26L709.4 319h85l17-47h104l9.6 47h75L934.7 5.7zm-650 0-79.4 213.6-8.6-43.3C182 126 136 71.7 84.7 44.7l72.6 274H243l127.3-313h-85.6z"/>
  <path fill="#faa61a" d="M131.7 5.7H1.3L0 12c101.7 26 169 88.7 196.7 164L168.3 32c-4.6-20-19-25.7-36.6-26.3z"/>
</svg>