<svg xmlns="http://www.w3.org/2000/svg" width="800" height="800" viewBox="0 0 512 512">
	<path fill="currentColor"
		d="M111 412a46 46 0 0 0-14 33l1 8a24 24 0 0 0 4 8l4 4 7 1v-9a4 4 0 0 1-3-1l-1-2-2-4v-5a37 37 0 0 1 7-22 46 46 0 0 1 23-17 34 34 0 0 1 22 1c6 3 12 7 16 11 5 5 8 11 9 16 2 4 2 8 2 11v5l-1 3-1 2-2 1-2 1v9a14 14 0 0 0 10-3l3-4 2-6 1-8-2-14-7-13c-4-6-10-12-17-16a48 48 0 0 0-24-7 45 45 0 0 0-35 17z" />
	<path fill="currentColor"
		d="M166 452c-2 1-3 3-3 5v8c0 2 1 4 3 5 1 2 3 2 5 2l6-2v-18l-6-1c-2-1-4 0-5 1zm-44-1-6 1v18l6 2a7 7 0 0 0 8-7v-8a7 7 0 0 0-8-6z" />
	<path fill="currentColor"
		d="M453 430a82 82 0 0 0-31-46l-21-12-33-13a174 174 0 0 1-34-17l-8-8c-2-3-3-7-3-11a85 85 0 0 1 2-32c5-5 9-12 13-19l12-27a49 49 0 0 0 22-19 82 82 0 0 0 11-35c0-6-1-11-4-16-1-4-3-7-6-10a233 233 0 0 0 8-52 127 127 0 0 0-8-44 68 68 0 0 0-45-38 95 95 0 0 0-22-20c-5-3-11-5-17-6l-17-2a281 281 0 0 0-37 4l-9 2a46 46 0 0 1-6 0h-6a126 126 0 0 1-27-7l-2-1-2-1h-1a9 9 0 0 0-4 1l-3 1-3 2-7 6a109 109 0 0 0-15 19l-4 8a202 202 0 0 0-13 66 204 204 0 0 0 4 40l1 3v8l2 9-7 11a39 39 0 0 0-3 26c1 7 3 13 6 18 4 8 8 15 14 19 4 4 8 6 12 8l12 27c4 7 8 14 13 19a107 107 0 0 1 2 32l-2 7c-1 4-3 7-6 10l-11 8-15 7-31 11-25 12-17 13c-8 7-15 16-20 27-4 12-7 25-7 41l1 6 3 5c2 3 5 6 9 8 6 5 14 9 24 13 16 6 37 11 64 15a719 719 0 0 0 264-15 130 130 0 0 0 24-12l9-9 3-5 1-6c0-11-1-21-4-29zm-126-72-50 78-5-38 14-15-9-15 38-21a49 49 0 0 0 12 11zM183 87c45 10 134-9 134-9s1 22 16 42c6 8 11 20 14 32-1-2-3-2-6-3-8-1-20-2-33-1-38 2-35 5-51 5s-12-3-50-5c-13-1-25 0-33 1-4 1-6 1-7 4 0 1 0 2-2 3 5-16 17-36 18-69zm157 89c0 1 0 23-15 30a41 41 0 0 1-36 0c-6-3-10-8-12-14l-1-5c-1-4-4-16 3-21 4-4 18-6 31-6 11 0 23 2 27 5 2 3 3 7 3 11zm-101 11-1 5c-2 6-6 11-12 14-5 3-11 4-18 4-6 0-13-1-18-4-15-7-15-29-15-30 0-4 1-8 3-11 3-3 16-5 27-5 13 0 27 2 31 6 7 5 4 17 3 21zm-50 77c-4-7-8-16-12-28l-2-3-3-2a34 34 0 0 1-18-14 65 65 0 0 1-8-26c0-3 0-7 2-10 1-3 3-5 6-7l8 11c2 2 3 0 3-4 2 9 6 24 20 32 20 11 51 7 61-17 4-11 4-22 11-22s8 11 12 22c10 24 41 28 61 17s20-38 20-39 1-2 3-2l2 12 5-9 4 7a23 23 0 0 1 2 14l-5 15c-3 6-6 11-10 14-3 3-7 5-11 6l-3 2-2 3a155 155 0 0 1-23 45l-2 2-1 2a130 130 0 0 0-3 39l3 12 1 1-51 27-57-26 4-14v-10c0-11-2-21-3-29l-1-2-2-2c-4-4-8-10-11-17zm-1 92 8-8 43 20-9 15 14 15-5 36-55-75 4-3zm252 103-4 5-8 5-23 9c-15 5-35 9-59 12a732 732 0 0 1-248-15 109 109 0 0 1-20-10l-5-5a5 5 0 0 1-1-1c0-10 1-18 3-25a65 65 0 0 1 24-36l19-11 23-9v17h11v-21l22-9 87 119 75-118 1 1 7 17 2 21v44h-27v12h67v-12h-27v-44a96 96 0 0 0-6-34l28 11 23 10 14 11c7 6 12 13 16 22s6 20 6 34z" />
</svg>