<svg xmlns="http://www.w3.org/2000/svg" width="800" height="800" fill="none" viewBox="0 0 24 24">
  <path fill="#0F0F0F" fill-rule="evenodd" d="M12 12c2.7614 0 5-2.4624 5-5.5S14.7614 1 12 1 7 3.4624 7 6.5 9.2386 12 12 12Zm0-2.2c-1.6569 0-3-1.4775-3-3.3 0-1.8225 1.3431-3.3 3-3.3s3 1.4775 3 3.3c0 1.8225-1.3431 3.3-3 3.3Zm7.1029 4.3087c-.8425-.8453-2.1459-1.0276-3.1868-.41a33.026 33.026 0 0 0-.5125.3118c-.4099.253-.7281.4493-1.1382.6178C13.75 14.8401 13.0835 15 12 15c-1.0732 0-1.7507-.1509-2.274-.3553-.4625-.1807-.8278-.4077-1.3092-.7069a59.8519 59.8519 0 0 0-.2966-.1835c-1.0443-.6411-2.3856-.4921-3.256.3876-.3798.3837-.8238.88-1.1793 1.4207C3.346 16.0781 3 16.7638 3 17.5v2.5003C3 21.6574 4.3433 23 6 23h12c1.6567 0 3-1.3426 3-2.9997V17.5c0-.7459-.3553-1.4408-.7004-1.9609-.3626-.5464-.8144-1.0468-1.1967-1.4304Zm-2.1662 1.31c.2392-.1419.5413-.1071.7496.1018.3351.3363.6861.7316.9468 1.1245.2782.4192.3669.707.3669.855v2.5003c0 .5521-.4475.9997-1 .9997H6c-.5525 0-1-.4476-1-.9997V17.5c0-.1451.0855-.4271.3561-.8387.254-.3865.5975-.7769.9297-1.1126.2083-.2106.5253-.2513.788-.0899.0828.0507.167.1033.2531.1571.4825.3012 1.0223.6381 1.6715.8917C9.793 16.8181 10.7242 17 12 17c1.3002 0 2.2313-.1954 3.0254-.5217.5752-.2363 1.0825-.5501 1.5304-.8271.1321-.0817.259-.1602.3809-.2325Z" clip-rule="evenodd"/>
</svg>