<svg xmlns="http://www.w3.org/2000/svg" xml:space="preserve" width="800" height="800" fill-rule="evenodd" stroke-linejoin="round" stroke-miterlimit="2" clip-rule="evenodd" viewBox="0 0 64 64">
  <path d="M59 43H5v-9a1 1 0 0 0-2 0v14a3 3 0 0 0 3 3h4a1 1 0 0 0 0-2H6a1 1 0 0 1-1-1v-3h54v3a1 1 0 0 1-1 1H14a1 1 0 0 0 0 2h13c-1 3-1 6-4 8h-1a1 1 0 0 0 0 2h21a1 1 0 0 0 0-2h-2c-3-2-3-5-4-8h21a3 3 0 0 0 3-3V18a3 3 0 0 0-3-3h-8a1 1 0 0 0 0 2h8a1 1 0 0 1 1 1v25Zm-24 8h-6c-1 3-1 6-3 8h12c-2-2-2-5-3-8ZM21 8h-4l-1 1v6c0 3 2 5 5 6a11 11 0 0 0 8 10v4c-3 0-5 2-5 5l1 1 14 1v-1l1-1c0-3-2-5-5-5v-4a11 11 0 0 0 8-10c3-1 5-3 5-6V9l-1-1h-4V4l-1-1H22l-1 1v4ZM7 37v2a1 1 0 0 0 2 0v-2a1 1 0 0 0-2 0Zm31 3H26c0-2 2-3 3-3h6c1 0 3 1 3 3Zm-7-9v4h2v-4h-2ZM9 34V21a1 1 0 0 0-2 0v13a1 1 0 0 0 2 0Zm36-12s-2 8-8 9a1 1 0 1 0 0 2c7-2 9-10 9-10a1 1 0 1 0-1-1Zm-27 1s2 8 9 10a1 1 0 1 0 0-2c-6-1-8-9-8-9a1 1 0 1 0-1 1Zm-4-8H6a3 3 0 0 0-3 3v12a1 1 0 0 0 2 0V18a1 1 0 0 1 1-1h8a1 1 0 0 0 0-2Zm18 14a9 9 0 0 1-9-9V5h18v15a9 9 0 0 1-9 9Zm1-21a1 1 0 0 0-2 0l-2 4-4 1a1 1 0 0 0 0 1l2 4v4a1 1 0 0 0 1 1l4-2 4 2a1 1 0 0 0 1-1v-4l2-4a1 1 0 0 0 0-1l-4-1-2-4Zm-1 3 2 2v1h3l-2 3v3l-3-1-3 1v-3l-2-3h3v-1l2-2Zm-11 8c-2-1-3-2-3-4v-5h3v9Zm22 0v-9h3v5c0 2-1 3-3 4Z"/>
</svg>