<svg xmlns="http://www.w3.org/2000/svg" xml:space="preserve" width="800" height="800" viewBox="0 0 512 512">
  <path d="M328 157a11 11 0 0 0-16-15L184 270a11 11 0 0 0 16 15l128-128zm-104-50a43 43 0 1 0 0 85 43 43 0 0 0 0-85zm0 64a21 21 0 1 1 0-43 21 21 0 0 1 0 43zm64 64a43 43 0 1 0 0 85 43 43 0 0 0 0-85zm0 64a21 21 0 1 1 0-43 21 21 0 0 1 0 43z"/>
  <path d="M459 213a53 53 0 0 0-12-69 53 53 0 0 0-35-61 53 53 0 0 0-54-46 53 53 0 0 0-67-24 53 53 0 0 0-70 0 53 53 0 0 0-67 24 53 53 0 0 0-54 46 53 53 0 0 0-35 61 53 53 0 0 0-12 69 53 53 0 0 0 12 70 53 53 0 0 0 35 61 53 53 0 0 0 54 45 53 53 0 0 0 67 24 53 53 0 0 0 70 0 53 53 0 0 0 67-24 53 53 0 0 0 54-45 53 53 0 0 0 35-61 53 53 0 0 0 12-70zm-14 34c-2 9-7 17-16 22-4 3-6 8-4 13a32 32 0 0 1-25 43c-5 1-9 5-9 11a32 32 0 0 1-38 31c-5-1-10 2-12 7a32 32 0 0 1-47 17c-4-2-10-1-13 3a32 32 0 0 1-50 0 11 11 0 0 0-13-3 32 32 0 0 1-47-17c-2-5-7-8-12-7a32 32 0 0 1-26-7c-8-6-12-15-12-24 0-6-4-10-9-11a32 32 0 0 1-25-43c2-5 0-10-4-13a32 32 0 0 1-9-49c4-4 4-10 0-14a32 32 0 0 1 9-48c4-3 6-8 4-13a32 32 0 0 1 25-43c5-1 9-6 9-11a32 32 0 0 1 38-32c5 1 10-2 12-7a32 32 0 0 1 47-17c4 3 10 2 13-2a32 32 0 0 1 50 0c3 4 9 5 13 2 9-4 19-5 28-2s16 10 19 19c2 5 7 8 12 7a32 32 0 0 1 26 7c8 6 12 15 12 25 0 5 4 10 9 11a32 32 0 0 1 25 43c-2 5 0 10 4 13a32 32 0 0 1 9 48c-4 4-4 10 0 14 6 8 9 17 7 27z"/>
  <path d="M299 82a11 11 0 0 0 7-21A160 160 0 0 0 96 205a11 11 0 1 0 22 1A139 139 0 0 1 299 82zm107 129c-6-1-11 4-12 10a139 139 0 0 1-181 124 11 11 0 0 0-7 20 160 160 0 0 0 210-143c0-6-4-11-10-11zm-286 29a11 11 0 1 0-21 4l2 9a11 11 0 0 0 21-5l-2-8zm272-53a11 11 0 1 0 21-4l-2-9a11 11 0 1 0-21 5l2 8zm-29 304H149a11 11 0 0 0 0 21h214a11 11 0 1 0 0-21z"/>
</svg>